<?xml version="1.0" encoding="UTF-8" standalone="no"?>
<!--
<!DOCTYPE svg PUBLIC "-//W3C//DTD SVG 1.1//EN" "http://www.w3.org/Graphics/SVG/1.1/DTD/svg11.dtd">
!-->
<svg width="100%" height="100%" viewBox="0 0 32 32" version="1.1" xmlns="http://www.w3.org/2000/svg" xmlns:xlink="http://www.w3.org/1999/xlink" xml:space="preserve" xmlns:serif="http://www.serif.com/" style="fill-rule:evenodd;clip-rule:evenodd;stroke-linejoin:round;stroke-miterlimit:2;">
    <rect id="SpecTypes_Air" x="0" y="0" width="32" height="32" style="fill:none;"/>
    <clipPath id="_clip1">
        <rect x="0" y="0" width="32" height="32"/>
    </clipPath>
    <g clip-path="url(#_clip1)">
        <path id="F15" d="M-0.268,11.102L-0.563,12.661L-1.668,12.661L-1.954,12.152L-2.591,14.252L-5.971,14.952L-6.623,13.337L-4.165,10.466L-4.165,11.087L-3.02,9.798L-3.147,8.005L-8.99,8.629L-10.043,6.155L-3.027,-0.911L-2.876,-2.653L-2.327,-4.482L-2.224,-6.637L-0.95,-6.637L-0.835,-11.552L-0.505,-13.368L-0,-14.952L0.505,-13.368L0.835,-11.552L0.95,-6.637L2.224,-6.637L2.327,-4.482L2.876,-2.653L3.027,-0.911L10.043,6.155L8.99,8.629L3.147,8.005L3.02,9.798L4.165,11.087L4.165,10.466L6.623,13.337L5.971,14.952L2.591,14.252L1.954,12.152L1.668,12.661L0.563,12.661L0.268,11.102L-0.268,11.102Z" style="fill:#0024ff;"/>
        <path id="F16" d="M-0.768,14.452L-1.191,11.855L-1.191,14.253L-2.024,14.7L-4.969,14.7L-5.428,14.042L-5.428,12.861L-2.024,9.705L-1.982,7.493L-9.1,7.493L-9.5,8.15L-9.5,3.107L-9.1,5.119L-2.706,-0.365L-2.706,-1.34L-1.612,-5.495L-1.036,-10.456L-0.726,-12.722L0,-14.7L0.726,-12.722L1.036,-10.456L1.612,-5.495L2.706,-1.34L2.706,-0.365L9.1,5.119L9.5,3.107L9.5,8.15L9.1,7.493L1.982,7.493L2.024,9.705L5.428,12.861L5.428,14.042L4.969,14.7L2.024,14.7L1.191,14.253L1.191,11.855L0.768,14.452L-0.768,14.452Z" style="fill:#0024ff;"/>
        <path id="KC135" d="M-0,-14.966L0.567,-14.371L1.359,-11.091L1.359,-6.388L5.588,-2.962L5.56,-5.725L6.509,-5.744L6.583,-2.156L9.921,0.548L9.895,-2.483L10.895,-2.483L10.932,1.367L14.562,4.308L14.562,6.421L2.967,0.79L1.924,0.814L1.341,1.348L1.171,7.197L0.71,10.061L4.302,13.216L4.302,14.939L0.2,13.119L0.201,14.966L-0.2,14.966L-0.2,13.119L-4.302,14.939L-4.302,13.216L-0.71,10.061L-1.171,7.197L-1.341,1.348L-1.924,0.814L-2.967,0.79L-14.562,6.421L-14.562,4.308L-10.932,1.367L-10.895,-2.483L-9.895,-2.483L-9.921,0.548L-6.583,-2.156L-6.509,-5.744L-5.56,-5.725L-5.588,-2.962L-1.359,-6.388L-1.359,-11.091L-0.567,-14.371L-0,-14.966Z" style="fill:#0024ff;"/>
        <path id="E3" d="M-0,13.726L-4.322,15.546L-4.322,13.823L-0.73,10.668L-1.171,7.259C-2.456,6.655 -3.122,5.65 -3.2,4.261C-3.122,2.94 -2.535,1.99 -1.341,1.483L-5.5,2.271L-14,6.613L-14,4.523L-10.64,1.887L-10.607,-1.613L-9.607,-1.613L-9.628,1.068L-6.913,-1.132L-6.916,-4.673L-5.916,-4.673L-5.918,-1.938L-1.359,-5.631L-1.359,-11.335L-0.567,-14.614L0,-15.546L0.567,-14.614L1.359,-11.335L1.359,-5.631L5.918,-1.938L5.916,-4.673L6.916,-4.673L6.913,-1.132L9.628,1.068L9.607,-1.613L10.607,-1.613L10.64,1.887L14,4.523L14,6.613L5.5,2.271L1.341,1.483C2.535,1.99 3.122,2.94 3.2,4.261C3.122,5.65 2.456,6.655 1.171,7.259L0.73,10.668L4.322,13.823L4.322,15.546L-0,13.726Z" style="fill:#0024ff;"/>
        <path id="A10" d="M-0.584,13.902L-5.241,13.902L-5.373,10.639L-0.794,10.639L-0.794,9.376L-1.742,8.613L-3.584,8.613L-3.952,7.034L-3.952,3.166L-5.268,3.166L-15.503,2.192L-15.503,-1.386L-5.347,-2.281L-4.741,-4.018L-4.215,-2.334L-1.355,-2.334L-1.355,-10.24L-0.675,-13.789L0,-14.402L0.675,-13.789L1.355,-10.24L1.355,-2.334L4.215,-2.334L4.741,-4.018L5.347,-2.281L15.503,-1.386L15.503,2.192L5.268,3.166L3.952,3.166L3.952,7.034L3.584,8.613L1.742,8.613L0.794,9.376L0.794,10.639L5.373,10.639L5.241,13.902L0.584,13.902L0,14.402L-0.584,13.902Z" style="fill:#0024ff;"/>
        <path id="F14" d="M-0.513,14.811L-0.723,13.864L-1.165,13.864L-1.439,13.548L-1.649,14.2L-2.933,14.2L-3.164,13.296L-3.9,14.474L-7.246,15L-7.73,14.327L-7.772,13.632L-7.33,13.022L-3.543,8.372L-3.543,6.668L-14.926,7.236L-14.358,5.384L-13.664,4.837L-5.1,1.681L-2.659,-4.274L-2.659,-5.663L-1.249,-5.663L-1.166,-9.411L-0.923,-12.085L-0,-15L0.923,-12.085L1.166,-9.411L1.249,-5.663L2.659,-5.663L2.659,-4.274L5.1,1.681L13.664,4.837L14.358,5.384L14.926,7.236L3.543,6.668L3.543,8.372L7.33,13.022L7.772,13.632L7.73,14.327L7.246,15L3.9,14.474L3.164,13.296L2.933,14.2L1.649,14.2L1.439,13.548L1.165,13.864L0.723,13.864L0.513,14.811L-0.513,14.811Z" style="fill:#0024ff;"/>
    </g>
</svg>
