<?xml version="1.0" encoding="UTF-8" standalone="no"?>
<!--
<!DOCTYPE svg PUBLIC "-//W3C//DTD SVG 1.1//EN" "http://www.w3.org/Graphics/SVG/1.1/DTD/svg11.dtd">
-->
<svg width="100%" height="100%" viewBox="0 0 32 32" version="1.1" xmlns="http://www.w3.org/2000/svg" xmlns:xlink="http://www.w3.org/1999/xlink" xml:space="preserve" xmlns:serif="http://www.serif.com/" style="fill-rule:evenodd;clip-rule:evenodd;stroke-linecap:round;stroke-linejoin:round;stroke-miterlimit:1.5;">
    <rect id="Tracks_Air" x="0" y="0" width="32" height="32" style="fill:none;"/>
    <clipPath id="_clip1">
        <rect x="0" y="0" width="32" height="32"/>
    </clipPath>
    <g clip-path="url(#_clip1)">
        <path id="Fnd" d="M-14,7C-14,-0.727 -7.727,-7 0,-7C7.727,-7 14,-0.727 14,7" style="fill:#0024ff;fill-opacity:0.5;stroke:#0024ff;stroke-width:1.33px;"/>
        <path id="Asf" d="M-14,6.062L-7,-6.062L7,-6.062L14,6.062" style="fill:#00ff15;fill-opacity:0.5;stroke:#00ff15;stroke-width:1.33px;"/>
        <path id="Neu" d="M-14,7.202L-14,2.178L-4.62,2.178L-4.62,-7.202L4.62,-7.202L4.62,2.178L14,2.178L14,7.202" style="fill:#a300ff;fill-opacity:0.5;stroke:#a300ff;stroke-width:1.33px;"/>
        <path id="Sus" d="M-11.9,7.012L-13.315,2.662L0,-7.012L13.315,2.662L11.916,6.963" style="fill:#ff8300;fill-opacity:0.5;stroke:#ff8300;stroke-width:1.33px;"/>
        <path id="Hos" d="M-14,7L0,-7L14,7" style="fill:#ff1400;fill-opacity:0.5;stroke:#ff1400;stroke-width:1.33px;"/>
        <path id="Unk" d="M-14,7C-14,3.339 -10.699,0.367 -6.633,0.367C-6.633,-3.699 -3.661,-7 0,-7C3.661,-7 6.633,-3.699 6.633,0.367C10.699,0.367 14,3.339 14,7" style="fill:#ffe900;fill-opacity:0.5;stroke:#ffe900;stroke-width:1.33px;"/>
        <path id="Pnd" d="M14,7L14,-7L-14,-7L-14,7" style="fill:#6b6b6b;fill-opacity:0.5;stroke:#6b6b6b;stroke-width:1.33px;"/>
    </g>
</svg>
