<?xml version="1.0" encoding="UTF-8" standalone="no"?>
<!DOCTYPE svg PUBLIC "-//W3C//DTD SVG 1.1//EN" "http://www.w3.org/Graphics/SVG/1.1/DTD/svg11.dtd">
<svg width="100%" height="100%" viewBox="0 0 5400 2700" version="1.1" xmlns="http://www.w3.org/2000/svg" xmlns:xlink="http://www.w3.org/1999/xlink" xml:space="preserve" xmlns:serif="http://www.serif.com/" style="fill-rule:evenodd;clip-rule:evenodd;stroke-linejoin:round;stroke-miterlimit:2;">
    <path id="Antarctica" d="M1513.81,2446.32L1513.81,2441.69L1516.81,2441.69L1516.81,2437.69L1530.72,2436.82L1536.9,2438.43L1545.81,2439.06L1567.8,2442.69L1589.8,2446.6L1610.8,2444.69L1602.8,2433.7L1592.8,2431.78L1577.8,2431.12L1569.37,2429.53L1567.8,2422.7L1599.8,2416.7L1576.8,2415.4L1556.8,2416.7L1556.8,2411.7L1571.84,2406.74L1580.8,2403.7L1561.8,2402.7L1567.8,2395.89L1583.22,2398.82L1605.8,2395.7L1605.8,2389.7L1614.8,2390.7L1617.38,2384.68L1627.8,2382.7L1644.79,2387.7L1659.79,2393.13L1671.88,2385.53L1690.79,2380.7L1694.79,2373.7L1694.79,2363.7L1684.79,2365.7L1683.79,2357.7L1674.79,2359.7L1674.79,2363.7L1663.79,2365.7L1676.79,2350.93L1685.79,2351.7L1685.79,2355.7L1698.79,2357.7L1700.79,2348.7L1712.78,2341.71L1727.78,2339.71L1740.78,2332.71L1738.78,2325.71L1753.78,2323.71L1774.78,2318.34L1788.79,2310.11L1806.19,2307.45L1816.94,2302.66L1825.77,2301.32L1842.77,2298.71L1842.77,2304.71L1821.77,2307.71L1822.77,2314.71L1815.6,2317.44L1809.77,2318.08L1799.77,2320.71L1801.77,2327.71L1767.78,2332.71L1778.78,2333.71L1788.78,2338.71L1794.77,2354.7L1788.78,2364.7L1786.78,2379.7L1801.6,2382.27L1802.77,2393.7L1792.77,2406.7L1795.27,2421.7L1793.77,2428.7L1803.46,2431.55L1802.87,2446.14L1792.37,2452.33L1788.5,2464.39L1774.78,2470.69L1787.78,2476.83L1826.77,2484.14L1868.77,2492.8L1878.76,2494.78L1910.76,2502.69L1934.76,2504.69L1947.76,2505.65L1963.75,2505.65L1963.75,2508.68L1970.75,2508.68L1970.75,2512.68L1999.75,2513.68L2014.75,2516.42L2033.74,2519.56L2045.74,2522.41L2052.74,2521.77L2082.74,2519.68L2120.73,2519.68L2175.73,2514.28L2204.72,2504.32L2212.72,2503.16L2230.72,2500.69L2242.72,2498.99L2251.72,2498.37L2260.72,2496.31L2277.71,2493.97L2297.71,2487.69L2293.71,2486.69L2294.73,2481.29L2312.88,2478.71L2322.71,2473.69L2319.71,2471.98L2317.71,2460.69L2340.7,2458.69L2356.74,2462.57L2370.7,2460.98L2377.7,2460.01L2393.79,2448.68L2427.69,2438.69L2463.6,2433.72L2471.7,2429.78L2484.69,2421.7L2512.68,2417.91L2524.68,2417.91L2531.68,2415.34L2540.68,2414.11L2572.68,2407.7L2584.67,2408.27L2593.67,2406.2L2603.67,2406.2L2616.67,2402.87L2647.25,2405.69L2652.68,2404.1L2672.49,2400.13L2683.66,2394.38L2700.66,2393.7L2723.66,2398.7L2732.66,2398.7L2760.65,2400.7L2772.65,2402.02L2791.65,2399.75L2806.65,2399.75L2815.64,2401.09L2831.64,2396.95L2857.64,2396.95L2883.64,2394.74L2895.64,2396.38L2917.63,2391.7L2917.63,2388.91L2937.63,2388.91L2950.63,2392.27L2964.63,2394.21L2984.62,2399.07L2997.66,2395.84L3020.62,2396.7L3020.62,2400.7L3034.62,2403.34L3045.63,2400.89L3065.57,2403.53L3080.61,2399.88L3092.57,2400.57L3101.62,2398.79L3112.61,2398.79L3127.61,2395.74L3134.59,2395.74L3144.62,2389.38L3154.51,2388.43L3162.61,2385.82L3187.6,2386.7L3202.6,2379.75L3211.59,2379.75L3228.59,2381.35L3237.59,2381.35L3261.59,2389.08L3272.59,2389.08L3286.59,2391.7L3286.59,2395.7L3296.39,2391.32L3300.64,2382L3312.58,2380.33L3324.58,2377L3332.58,2376.14L3343.58,2371.6L3365.49,2369.43L3373.59,2366.23L3395.57,2364.7L3395.57,2359.7L3409.57,2360.38L3423.74,2363.77L3438.57,2359.7L3428.57,2358.7L3428.57,2350.83L3442.57,2350.83L3455.57,2353.7L3464.56,2356.7L3462.56,2351.7L3454.57,2351.7L3468.56,2343.45L3473.56,2341.86L3490.56,2339.67L3505.55,2337.81L3529.56,2339.01L3545.55,2345.07L3562.55,2348.64L3568.55,2348.64L3598.55,2354.7L3598.55,2359.7L3626.54,2363.61L3642.54,2364.48L3654.54,2362.7L3681.54,2365.61L3705.53,2366.7L3724.53,2367.79L3731.53,2368.52L3745.53,2366.7L3751.45,2375.43L3757.62,2379.66L3786.52,2378.79L3813.5,2388.38L3822,2394.46L3831.52,2393.86L3856.51,2388.79L3874.51,2379.7L3889.51,2372.46L3909.51,2368.86L3921.4,2367.11L3930.51,2358.7L3924.55,2347.71L3927.74,2342.11L3936.5,2345.63L3951.5,2352.59L3980.5,2349.7L4004.49,2344.71L4024.49,2347.11L4031.49,2349.43L4054.49,2351.58L4084.49,2347.75L4095.48,2348.62L4105.48,2347.75L4117.9,2348.85L4129.48,2346.71L4129.48,2342.71L4139.49,2341.71L4139.49,2325.1L4147.48,2321.38L4161.48,2317.77L4171.51,2323.75L4190.47,2334.09L4210.47,2334.71L4226.05,2333.57L4245.47,2325.71L4276.46,2328.71L4280.79,2336.01L4292.46,2340.57L4312.5,2344.75L4339.45,2352.43L4366.45,2345.71L4380.45,2337.68L4398.45,2335.89L4414.44,2339.41L4428.42,2335.28L4429.44,2330.71L4448.44,2329.71L4446.87,2334.55L4439.52,2341.43L4451.44,2350.05L4469.44,2350.74L4482.44,2350.74L4497.43,2352.14L4520.39,2349.99L4531.43,2346.71L4523.43,2334.71L4541.43,2341.44L4564.43,2338.71L4565.99,2334.88L4585.42,2331.62L4603.42,2329.14L4614.51,2336.32L4638.42,2340.2L4650.41,2335.71L4667.45,2339.3L4684.41,2341.06L4703.41,2341.06L4711.41,2341.71L4728.4,2335.71L4731.4,2324.88L4757.31,2329.22L4774.4,2334.71L4782.81,2342.45L4787.5,2346.06L4819.97,2350.84L4826.39,2350.84L4840.39,2354.47L4850.39,2352.74L4861.39,2354.45L4869.39,2357.7L4897.38,2349.7L4896.38,2356.7L4912.38,2361.44L4925.39,2355.07L4935.38,2352.08L4946.25,2349.14L4948.77,2358.7L4956.41,2370.81L4967.28,2371.81L4977.37,2374.52L4994.37,2372.91L5002.37,2373.7L5015.37,2373.7L5027.37,2377.41L5055.36,2382.91L5067.36,2386.32L5074.36,2386.99L5095.36,2390.75L5113.36,2398.36L5136.35,2393.81L5156.35,2397L5163.35,2399.31L5182.35,2400.7L5199.35,2402.18L5220.34,2411.7L5232.34,2416.93L5247.25,2420.76L5259.34,2419.7L5238.34,2441.69L5239.34,2449.69L5226.34,2451.5L5199.35,2459.75L5185.35,2466.62L5167.52,2466.62L5152.35,2477.69L5166.35,2478.69L5155.44,2487.18L5148.35,2490.69L5157.35,2497.37L5167.26,2505.97L5176.44,2513.41L5194.36,2510.78L5203.34,2506.23L5217.34,2508.68L5224.34,2499.69L5227.14,2492.98L5231.38,2489.2L5235.32,2501.55L5227.34,2501.55L5227.34,2507.68L5257.34,2507.68L5257.34,2510.72L5270.34,2510.72L5282.33,2511.68L5329.33,2512.68L5360.32,2516.69L5400,2516.69L5400,2700L0,2700L0,2517.68L12.998,2515.77L46.954,2520.01L55.033,2523.47L63.992,2523.47L76.99,2524.68L101.987,2524.68L116.985,2525.68L152.981,2525.68L167.979,2526.68L186.976,2526.68L198.975,2527.64L211.973,2527.64L223.972,2528.36L232.971,2527.68L236.97,2527.68L256.968,2527.02L267.966,2524.85L298.962,2520.12L316.96,2517.58L325.959,2513.68L325.339,2507.91L329.129,2503.2L336.958,2495.9L353.955,2498.6L376.953,2499.69L402.949,2500.95L419.947,2496.69L416.947,2490.69L423.947,2489.69L423.947,2486.69L449.943,2483.37L456.942,2481.87L476.94,2480.69L494.938,2477.08L506.936,2476.36L514.935,2474.05L532.933,2470.78L545.931,2466.96L557.84,2468.96L567.928,2467.69L589.926,2468.69L628.921,2469.69L637.92,2461.73L662.916,2466.94L679.914,2467.81L690.913,2466.69L711.9,2464.79L717.33,2464.79L722.909,2463.8L759.904,2465.41L785.881,2457.43L786.901,2453.69L783.901,2453.69L783.901,2448.69L787.901,2448.69L803.899,2446.77L810.898,2447.75L818.897,2447.75L833.895,2451.08L861.891,2453.69L871.89,2454.65L879.889,2454.65L899.887,2455.69L936.882,2459.69L952.88,2458.69L968.878,2460.63L982.876,2458.74L990.875,2460.43L1000.87,2461.52L1025.87,2462.69L1040.87,2463.68L1054.87,2461.13L1077.86,2459.69L1109.86,2466.86L1122.86,2458.69L1137.86,2456.59L1146.86,2456.59L1161.85,2453.69L1177.85,2453.69L1173.85,2449.69L1148.86,2447.69L1157.85,2439.69L1164.85,2428.49L1193.85,2425.7L1205.85,2426.32L1218.85,2423.81L1248.84,2426.02L1262.84,2431.32L1277.01,2436.2L1296.84,2437.69L1306.84,2438.65L1321.83,2438.65L1334.87,2439.73L1355.83,2436.98L1375.83,2442.51L1395.82,2443.86L1408.82,2446.43L1417.82,2447L1426.82,2452.09L1435.82,2452.69L1445.86,2455.39L1464.82,2456.69L1480.21,2454.09L1481.81,2449.69L1493.81,2449.69L1493.81,2445.69L1513.81,2446.32L1513.81,2446.69L1525.81,2446.69L1513.81,2446.32ZM1899.76,2499.69L1900.75,2495.4L1918.16,2495.4L1912.76,2501.59L1907.76,2501.59L1899.76,2499.69ZM2055.74,2490.69L2072.74,2486.79L2094.74,2490.69L2093.14,2495.84L2066.74,2496.97L2058.03,2495.95L2055.74,2490.69ZM1741.78,2320.71L1749.78,2313.71L1749.78,2320.71L1741.78,2320.71ZM1823.77,2309.71L1837.6,2310.94L1845.77,2312.71L1831.77,2317.08L1824.76,2314.97L1823.77,2309.71ZM1852.77,2294.71L1859.77,2301.71L1852.77,2301.71L1852.77,2294.71Z" style="fill:#3b3b3b;"/>
    <path id="S.-America" serif:id="S. America" d="M1519.81,1208.16L1547.81,1225.85L1548.82,1220.94L1560.01,1209.59L1565.8,1208.85L1569.11,1189.37L1582.67,1184.95L1588.06,1181.43L1597.76,1180.42L1605.84,1175.38L1616.8,1165.86L1629.64,1164.45L1630.49,1172.42L1620.8,1175.85L1636.79,1181.45L1646.79,1178.85L1650.51,1168.51L1656.07,1175.83L1666.79,1178.02L1675.79,1195.85L1687.79,1194.85L1687.79,1191.85L1698.78,1191.28L1704.2,1193.54L1709.62,1194.4L1723.78,1197.93L1745.06,1191.35L1760.78,1190.85L1770.78,1199.93L1776.78,1201.26L1789.61,1207.42L1811.77,1224.85L1822.39,1235.18L1829.45,1244.27L1854.77,1259.31L1874.76,1255.92L1894.76,1262.77L1903.76,1265.41L1916.77,1274.94L1932.41,1285.01L1940.88,1305.99L1947.48,1307.37L1960.23,1313.81L1965.6,1321.66L1969.48,1326.92L1974.38,1340.74L1977.45,1351.74L1973.75,1360.83L1981.76,1357.11L1993.75,1358.55L2012.75,1364.08L2019.58,1368L2026.48,1369.37L2033.74,1382.83L2040.74,1386.83L2062.74,1389.34L2070.74,1389.96L2078.74,1391.66L2092.74,1390.83L2115.9,1401.11L2124.12,1406.34L2129.86,1412.45L2146.77,1423.47L2169.08,1428.24L2173.36,1438.82L2177.73,1458.82L2169.93,1488.81L2162.05,1497.8L2154.86,1506.58L2141.73,1519.81L2118.73,1539.81L2114.24,1570.8L2116.48,1588.8L2112.51,1607.8L2112.51,1614.75L2104.93,1626.8L2103.43,1643.53L2098.86,1648.92L2093.11,1659.7L2085.93,1669.79L2084.74,1681.79L2069.74,1692.79L2029.74,1694.79L2029.74,1699.79L2019.71,1703.89L2009.84,1707.11L1990.75,1715.79L1978.75,1723.78L1978.75,1728.78L1974.35,1730.38L1970.67,1742.78L1970.67,1771.78L1967.68,1778.34L1952.54,1792.78L1936.32,1819.48L1917.7,1834.21L1911.37,1846.73L1899.93,1856.94L1890.66,1867.52L1873.76,1872.73L1855.03,1874.78L1849.3,1882.29L1846.79,1892L1849.77,1892.76L1849.77,1896.76L1840.84,1915.04L1833.64,1923.69L1788.78,1935.1L1779.82,1936.36L1770.08,1959.32L1758.78,1965.95L1732.78,1963.65L1723.78,1961.75L1724.65,1973.75L1725.69,1980.32L1731.78,1982.75L1731.78,1987.75L1724.78,1990.75L1734.84,1994.82L1721.62,2004.75L1720.18,2016.48L1714.78,2025.69L1706.83,2025.69L1701.51,2027.73L1695.79,2029.91L1686.76,2041.74L1704.79,2055.31L1713.39,2062.74L1688.21,2085.11L1681.57,2100.02L1664.81,2108.78L1668.19,2121.98L1670.79,2134.73L1656.79,2136.73L1677.77,2142.82L1681.3,2153.09L1688.79,2157.47L1710.78,2167.73L1709.62,2173.16L1690.79,2171.73L1693.79,2178.73L1671.79,2175.73L1678.79,2183.73L1662.79,2178.73L1647.79,2172.73L1645.79,2172.73L1633.79,2173.73L1640.79,2172.73L1631.7,2169.09L1620.8,2170.73L1623.09,2167.89L1644.79,2164.73L1658.79,2162.73L1646.79,2156.73L1659.79,2152.73L1659.79,2150.73L1642.79,2150.73L1642.79,2145.73L1647.79,2141.73L1655.79,2137.73L1637.79,2140.73L1629.8,2156.73L1615.8,2153.73L1615.8,2159.73L1604.8,2157.73L1605.8,2147.73L1609.8,2146.73L1593.8,2142.73L1600.8,2139.73L1590.8,2141.73L1582.8,2127.73L1584.8,2120.73L1583.8,2109.74L1588.8,2105.74L1586.76,2098.32L1586.76,2078.74L1582.84,2074.74L1582.84,2082.74L1580.37,2099.68L1566.4,2097.72L1564.91,2093.78L1566.8,2089.74L1567.8,2069.74L1573.8,2065.74L1582.8,2074.74L1585.8,2059.74L1579.08,2052.13L1573.76,2050.48L1565.8,2053.74L1572.51,2044.46L1576.34,2039.03L1583.15,2029.75L1585.36,2011.93L1595.49,2015.88L1592.8,2031.75L1599.53,2018.75L1606.5,1996.75L1607.8,1981.75L1611.8,1984.75L1608.8,1980.75L1606.72,1973.12L1613.8,1966.75L1605.8,1969.75L1606.72,1973.12L1603.8,1975.75L1590.93,1965.75L1595.95,1952.76L1596.53,1950.76L1597.43,1942.76L1599.5,1935.85L1597.81,1928.72L1597.81,1920.76L1594.8,1907.76L1602.2,1906.99L1607.93,1891.76L1613.6,1878.93L1617.36,1872.73L1620.53,1860.78L1624.25,1853.6L1625.27,1845.77L1627.54,1836.77L1623.94,1808.78L1629.44,1796.78L1628.08,1783.78L1631.33,1774.78L1632.59,1768.82L1635.3,1762.61L1639.33,1744.78L1640.06,1733.95L1642.33,1726.77L1641.13,1720.79L1643.79,1702.79L1640.79,1695.79L1646.07,1682.79L1647.61,1669.79L1647.61,1652.79L1645.08,1635.8L1643.77,1626.9L1631.04,1616.71L1625.58,1610.17L1611.8,1601.06L1593.81,1593.21L1572.97,1581.17L1556.52,1562.81L1555.21,1550.09L1547.1,1536.9L1542.59,1531.3L1540.09,1524.91L1536.18,1519.44L1533.77,1513.81L1528.45,1504.81L1514.2,1473.82L1508.57,1466.82L1497.64,1450.35L1482.81,1436.82L1486.81,1436.82L1480.38,1415.91L1499.81,1394.83L1494.81,1394.83L1488.32,1384.54L1488.32,1377.83L1486.81,1363.83L1493.5,1354.92L1497.65,1348.74L1499.81,1336.83L1516.8,1327.68L1518.62,1323.26L1520.81,1314.84L1523.81,1314.84L1523.81,1309.84L1535.81,1306.84L1535.81,1301.84L1544.81,1292.84L1542.81,1289.84L1536.81,1289.84L1541.81,1275.84L1539.22,1272.71L1540.72,1265.97L1540.72,1254.84L1528.06,1234.85L1516.09,1217.58L1519.81,1208.16ZM2130.73,2159.73L2155.82,2164.01L2162.73,2172.73L2145.73,2166.61L2130.73,2159.73ZM1640.79,2153.73L1645.79,2163.73L1636.79,2162.73L1640.79,2153.73ZM1812.77,2120.73L1833.77,2122.73L1828.77,2123.73L1832.77,2124.73L1805.77,2132.73L1812.77,2120.73ZM1806.69,2121.72L1789.83,2125.79L1792.77,2128.73L1781.78,2127.73L1789.83,2125.79L1788.78,2124.73L1794.77,2123.73L1790.77,2120.73L1796.77,2121.73L1795.77,2119.73L1806.69,2121.72ZM1573.8,2110.74L1581.8,2110.74L1569.8,2124.73L1573.8,2110.74ZM1806.69,2121.72L1810.77,2120.73L1806.77,2121.73L1806.69,2121.72ZM1568.8,2099.74L1576.8,2101.74L1568.8,2111.74L1568.8,2099.74ZM1582.8,1999.75L1586.79,1992.66L1588.82,1980.35L1598.76,1982.43L1597,1989.75L1597,1995.71L1582.8,1999.75ZM1738.78,1981.75L1743.47,1982.35L1746.16,1990.92L1739.83,1992.56L1736.38,1990.44L1735.78,1985.75L1738.78,1985.75L1738.78,1981.75ZM1777.78,1189.85L1783.78,1189.85L1783.78,1195.85L1777.78,1195.85L1777.78,1189.85Z" style="fill:#3b3b3b;"/>
    <path id="Oceania" d="M3731.53,2081.74L3743.53,2085.74L3743.53,2088.74L3747.53,2088.74L3747.53,2094.74L3732.53,2093.74L3731.53,2081.74ZM5202.7,2043.95L5196.89,2039.68L5214.34,2018.52L5228.34,2009.16L5237.33,2006.11L5242.76,2002.46L5266.29,1984.75L5272.02,1977.2L5278.73,1970.73L5280.94,1962.88L5293.33,1956.76L5291.33,1960.75L5296.33,1967.75L5305.33,1965.75L5306.33,1960.75L5309.33,1960.75L5315.33,1968.75L5310.33,1970.75L5314.19,1976.55L5298.92,1992.54L5291.5,2001.43L5296.33,2004.75L5286.33,2008.16L5273.36,2012.82L5265.8,2024.75L5257.63,2037.16L5251.77,2040.88L5244.17,2046.41L5237.34,2045.74L5237.34,2049.74L5224.51,2048.16L5220.18,2045.7L5214.51,2043.17L5202.7,2043.95ZM4900.38,1967.75L4901.89,1965.88L4908.38,1964.5L4923.38,1962.75L4916.38,1992.75L4904.38,2002.75L4890.32,2002.2L4882.2,1993.4L4879.38,1983.75L4871.74,1971.47L4870.74,1960.47L4900.38,1967.75ZM5298.33,1872.77L5316.33,1889.76L5323.35,1898.35L5330.33,1903.76L5331.33,1896.76L5336.82,1903.85L5339.89,1911.55L5358.32,1918.44L5369.32,1913.27L5375.35,1918.78L5373.3,1927.67L5368.32,1935.76L5356.99,1937.66L5355.32,1943.76L5344.07,1961.79L5330.22,1973.85L5319.33,1969.75L5330.69,1952.78L5310.35,1943.74L5306.5,1938.15L5315.18,1933.18L5320.1,1913.76L5306.16,1891.22L5296.54,1878.82L5298.33,1872.77ZM4831.39,1512.81L4838.96,1513.83L4842.39,1527.81L4846.39,1527.81L4845.39,1534.81L4855.86,1561.73L4867.02,1564.36L4877.36,1573.1L4878.9,1589.48L4875.39,1593.8L4890.36,1614.8L4892.87,1627.8L4894.97,1632.69L4910.97,1641.32L4916.51,1646.49L4928.78,1652.33L4931.97,1660.58L4941.38,1677.79L4948.89,1678.81L4954.49,1685.2L4960.78,1689.1L4962.69,1698.52L4970.37,1709.79L4986.37,1720.79L4994.93,1733.07L4996.2,1751.78L4996.2,1757.61L4999.9,1764.79L5003.08,1780.69L4999.57,1790.78L4997.94,1799.78L4994.75,1809.77L4993.36,1820.68L4987.37,1832.77L4982.37,1832.77L4981.37,1841.77L4961.38,1863.77L4960.38,1874.77L4947.38,1885.76L4951.38,1885.76L4945.38,1908.76L4926.38,1906.76L4923.38,1909.76L4924.38,1916.76L4895.38,1931.25L4889.38,1931.25L4877.12,1926.82L4867.39,1919.76L4866.37,1923.25L4852.39,1928.82L4835.39,1926.16L4815.39,1921.79L4804.86,1918.11L4796.01,1907.75L4793.92,1894.76L4776.4,1882.76L4770.4,1862.77L4764.89,1875.75L4760.4,1876.77L4762.05,1860.77L4766.42,1852.77L4769.4,1845.77L4766.4,1840.77L4766.4,1844.77L4757.99,1854.21L4750.4,1858.25L4737.4,1872.77L4727.97,1861.77L4720.44,1850.96L4713.21,1846.19L4713.21,1840.77L4707.41,1836.77L4695.41,1832.09L4687.99,1829.65L4680.41,1828.93L4667.41,1823.26L4636.42,1825.3L4624.42,1829.91L4611.42,1833.44L4590.42,1834.42L4573.42,1842.14L4563.56,1846.2L4553.34,1858.04L4536.43,1858.77L4519.43,1857.62L4508.43,1858.68L4498.43,1859.66L4490.19,1866.03L4482.61,1867.89L4468.44,1875.12L4457.44,1875.12L4433.44,1867.18L4426.04,1863.76L4424.44,1854.77L4433.85,1839.77L4435.33,1829.77L4425.57,1808.77L4423.14,1790.61L4416.72,1777.78L4412.46,1771.78L4410.8,1763.78L4407.44,1747.78L4403.44,1737.78L4411.44,1738.78L4400.64,1711.79L4405.38,1698.79L4410.31,1683.38L4415.44,1685.79L4432.4,1669.96L4448.44,1660.2L4464.44,1658.9L4471.44,1655.36L4479.26,1653.45L4486.53,1649.21L4493.43,1649.21L4509.43,1644.74L4533.43,1621.8L4532.6,1606.89L4545.96,1599.98L4549.43,1605.8L4553.43,1603.8L4553.43,1592.8L4564.43,1595.8L4567.43,1591.8L4579.42,1574.8L4576.42,1567.8L4588.42,1567.8L4596.32,1561.23L4602.63,1557.18L4619.42,1566.2L4630.42,1569.8L4636.42,1566.8L4646.41,1551.81L4651.41,1551.81L4655.53,1537.38L4662.79,1532.64L4649.41,1527.81L4650.41,1516.81L4660.41,1518.99L4668.41,1516.98L4675.41,1517.63L4688.41,1516.81L4696.69,1523.53L4716.41,1529.47L4725.4,1528.81L4725.4,1532.81L4734.3,1528.54L4744.13,1524.84L4751.4,1532.81L4745.81,1547.79L4741.43,1548.81L4741.43,1557.38L4734.62,1571.38L4746.57,1583.21L4754.1,1584.39L4758.7,1589.01L4765.12,1592.85L4775.4,1599.61L4792.4,1596.8L4807.39,1610.8L4807.39,1603.8L4813.39,1603.8L4822.32,1577.8L4821.48,1556.81L4826.15,1538.81L4826.15,1530.98L4831.39,1512.81ZM4751.4,1884.76L4764.4,1883.76L4751.4,1889.76L4751.4,1884.76ZM4754.4,1872.77L4759.4,1872.77L4759.4,1877.77L4754.4,1877.77L4754.4,1872.77ZM5162.35,1653.79L5183.81,1667.7L5194.35,1674.54L5200.35,1683.79L5185.18,1677.56L5162.35,1653.79ZM5378.32,1621.8L5367.32,1623.49L5363.37,1622.74L5361.83,1613.31L5377.3,1615.1L5378.32,1621.8ZM5200.35,1577.8L5207.34,1583.8L5200.35,1583.8L5200.35,1577.8ZM4745.4,1556.81L4750.4,1556.81L4750.4,1563.8L4745.4,1563.8L4745.4,1556.81ZM4687.41,1383.83L4688.4,1377.72L4709.41,1377.72L4722.4,1393.83L4730.39,1399.99L4739.65,1391.11L4745.81,1383.99L4752.27,1381.1L4768.4,1373.25L4796.4,1385.08L4806.48,1388.56L4818.39,1389.73L4838.39,1398.25L4850.11,1401.26L4859.39,1406.18L4866.11,1408.22L4875.39,1414.28L4885.38,1431.82L4902.38,1437.46L4916.38,1449.82L4905.82,1451.84L4906.4,1458.78L4919.95,1471.12L4929.6,1485.72L4937.38,1485.72L4945.38,1493.81L4959.07,1502.41L4961.38,1509.81L4942.34,1505.08L4930.38,1503.37L4922.38,1501.26L4913.7,1499.07L4898.47,1483.55L4888.36,1470.93L4875.48,1467.69L4869.3,1466.17L4860.39,1474.82L4855.39,1474.82L4845.41,1486.63L4839.31,1490.4L4827.39,1487.9L4812.39,1485.42L4795.39,1472.05L4781.35,1478.68L4753.4,1478.68L4761.4,1471.82L4761.4,1466.82L4778.4,1459.82L4776.14,1447.91L4767.4,1431.82L4756.4,1425.66L4749.4,1423.49L4737.4,1418.24L4719.4,1408.82L4702.41,1399.83L4692.41,1401.83L4703.41,1387.83L4703.41,1382.83L4687.41,1383.83ZM4554.43,1503.81L4555.03,1494.83L4570.4,1485.24L4577.68,1479.25L4600.42,1476.82L4599.43,1481.29L4581.42,1489L4567.01,1501.38L4554.43,1503.81ZM4485.44,1495.81L4486.43,1491.55L4493.43,1490.1L4509.11,1497.1L4501.72,1502.81L4485.44,1495.81ZM5095.36,1490.81L5106.36,1491.81L5106.36,1496.81L5095.36,1495.81L5095.36,1490.81ZM4451.44,1484.81L4452.43,1478.56L4464.7,1477.81L4466.44,1483.81L4451.44,1484.81ZM4447.44,1483.81L4442.75,1474.84L4449.44,1473.82L4447.44,1483.81ZM4497.43,1481.82L4518.44,1477.52L4519.43,1482.82L4497.43,1481.82ZM4424.44,1471.82L4431.98,1475.73L4430.13,1478.21L4424.44,1478.82L4424.44,1471.82ZM4283.46,1452.82L4289.68,1440.18L4301.46,1440.18L4308.37,1439.17L4315.5,1442.29L4328.45,1450.82L4353.15,1452.84L4360.08,1446.81L4366.45,1445.82L4377.45,1450.86L4406.44,1452.82L4406.44,1457.82L4401.44,1458.65L4398.46,1465.23L4409.44,1465.23L4415.44,1465.82L4414.44,1478.82L4397.45,1474.68L4389.45,1475.73L4376.45,1473.75L4364.45,1473.75L4342.45,1466.55L4322.45,1466.55L4310.46,1462.8L4296.46,1460.82L4297.46,1453.82L4283.46,1452.82ZM5020.37,1433.82L5025.08,1434.83L5035.77,1445.95L5036.36,1451.82L5025.9,1443.49L5020.37,1433.82ZM4711.41,1443.82L4716.41,1443.82L4716.41,1449.82L4711.41,1449.82L4711.41,1443.82ZM4972.37,1413.82L4979.37,1414.82L4982.37,1412.82L4984.07,1420.6L4980.25,1425.31L4981.37,1431.82L4969.37,1432.82L4959.38,1441.12L4944.55,1443.55L4937.37,1440.86L4924.38,1431.82L4950.38,1432.82L4960.53,1432.25L4968.5,1425.69L4976.37,1422.82L4972.37,1413.82ZM4163.48,1275.84L4168.48,1275.84L4173.47,1287.84L4183.64,1293.84L4205.47,1312.84L4212.21,1311.37L4219.31,1317.99L4226.47,1318.84L4228.21,1323.25L4234.3,1325.68L4239.56,1328.28L4253.31,1334.62L4257.12,1351.83L4255.55,1360.6L4265.47,1365.57L4267.16,1372.74L4274.17,1381.69L4283.93,1387.78L4288.05,1392.34L4293.46,1401.83L4287.46,1401.83L4288.28,1417.82L4287.5,1424.82L4287.5,1434.82L4278.46,1431.82L4276.05,1434.2L4261.59,1431.22L4256.2,1425.5L4242.89,1417.06L4231.89,1405.2L4224.11,1397.79L4225.47,1384.83L4219.47,1384.83L4222.47,1369.83L4218.41,1365.01L4209.75,1364.36L4201.47,1348.83L4199.47,1340.83L4194.17,1339.72L4187.83,1326.83L4194.47,1316.84L4190.47,1315.84L4190.47,1320.84L4183.47,1320.84L4186.47,1315.84L4171.47,1307.84L4173.47,1301.84L4169.57,1292.12L4163.48,1275.84ZM4492.43,1362.83L4504.13,1363.72L4513.37,1371.37L4521.47,1364.86L4529.26,1364L4540.43,1361.83L4527.54,1381.83L4531.43,1400.83L4539.43,1415.82L4530.43,1422.82L4522.43,1414.82L4526.43,1413.82L4523.43,1409.82L4505.43,1399.83L4504.6,1424.82L4503.83,1431.39L4491.5,1433.08L4491.5,1423.82L4492.85,1408.82L4489.28,1401.9L4482.44,1401.9L4482.44,1396.83L4486.44,1396.83L4490.43,1379.83L4492.43,1362.83ZM4534.43,1420.82L4539.43,1420.82L4539.43,1425.82L4534.43,1425.82L4534.43,1420.82ZM4437.44,1266.84L4446.61,1252.96L4465.44,1258.84L4487.44,1268.84L4474.36,1275.27L4476.44,1279.84L4476.44,1284.84L4467.92,1289.39L4461.44,1300.84L4466.56,1313.23L4471.01,1323.78L4480.44,1336.83L4465.44,1337.83L4462.35,1350.83L4462.35,1362.32L4448.04,1373.92L4442.44,1394.83L4444.96,1403.78L4439.44,1403.78L4418.44,1410.82L4418.44,1403.83L4403.44,1401.83L4403.44,1397.83L4394.45,1395.83L4379.45,1399.83L4364.45,1394.79L4352.35,1393.83L4352.35,1384.83L4355.45,1370.83L4355.45,1365.83L4340.45,1367.83L4335.83,1356.83L4332.45,1345.83L4337.02,1323.81L4352.45,1323.81L4366.45,1320.84L4367.45,1305.84L4393.17,1301.86L4402.61,1291.84L4409.44,1280.84L4431.44,1276.84L4432.44,1266.84L4437.44,1266.84ZM4605.27,1396.83L4605.27,1402.6L4592.79,1399.87L4595.57,1396.17L4599.42,1396.17L4605.27,1396.83ZM4351.45,1394.83L4356.45,1394.83L4356.45,1399.83L4351.45,1399.83L4351.45,1394.83ZM4623.42,1392.83L4632.42,1392.83L4632.42,1397.83L4623.42,1397.83L4623.42,1392.83ZM4281.46,1372.83L4289.81,1374.57L4300.46,1387.83L4300.46,1395.83L4288.46,1392.83L4286.46,1381.83L4279.46,1381.83L4281.46,1372.83ZM4313.46,1389L4318.44,1389L4312.66,1393.83L4313.46,1389ZM4668.41,1363.83L4683.41,1360.83L4682.41,1371.83L4667.41,1371.83L4668.41,1363.83ZM4568.42,1328.83L4573.42,1328.83L4573.42,1334.83L4567.43,1336.83L4567.43,1340.83L4557.43,1341.83L4557.43,1336.83L4568.42,1328.83ZM4537.43,1336.83L4546.43,1336.83L4546.43,1341.83L4537.43,1341.83L4537.43,1336.83ZM4140.48,1282.84L4145.48,1282.84L4145.48,1287.84L4140.48,1287.84L4140.48,1282.84ZM4149.48,1270.84L4162.48,1271.84L4162.48,1276.84L4149.48,1279.84L4149.48,1270.84ZM4581.42,1203.85L4591.42,1221.85L4594.71,1228.85L4592.47,1245.48L4584.42,1239.85L4581.03,1248.77L4583.94,1255.88L4582.42,1264.84L4577.42,1264.84L4576.42,1259.84L4572.42,1262.84L4562.24,1254.38L4560.81,1244.85L4561.82,1238.29L4558.51,1234.6L4550.43,1237.85L4547.43,1233.85L4541.43,1239.85L4541.43,1232.85L4529.43,1245.84L4533.17,1232.26L4542.13,1226.97L4546.7,1222.42L4557.43,1228.85L4563.43,1226.85L4570.42,1222.85L4571.42,1217.85L4577.42,1217.85L4577.42,1214.85L4583.42,1214.85L4581.42,1203.85ZM4536.43,1199.85L4544.36,1187.45L4551.43,1185.85L4547.19,1201.85L4547.19,1211.85L4536.43,1199.85ZM4557.43,1205.85L4567.43,1198.85L4567.43,1203.85L4557.43,1205.85ZM4563.43,1161.86L4577.29,1162.88L4581.22,1173.85L4585.42,1184.85L4574.42,1181.85L4577.42,1195.85L4571.42,1197.85L4569.42,1184.85L4567.43,1186.85L4566.43,1186.85L4567.43,1174.85L4568.73,1178.87L4573.09,1174.06L4567.14,1168.75L4563.43,1161.86ZM4528.43,1169.85L4547.43,1176.85L4540.43,1189.85L4529.43,1189.85L4528.43,1169.85ZM4547.43,1160.86L4560.43,1172.85L4549.43,1166.85L4547.43,1169.85L4547.43,1160.86ZM4520.43,1164.86L4514.98,1163.84L4513,1151.03L4519.43,1149.86L4520.43,1164.86ZM4535.43,1135.86L4548.47,1139.85L4558.43,1143.86L4552.43,1148.86L4558.43,1151.86L4555.43,1152.86L4561.43,1160.86L4557.43,1160.86L4551.7,1155.02L4547.56,1149.63L4537.43,1140.86L4540.43,1151.86L4528.43,1140.86L4535.43,1140.86L4535.43,1135.86ZM4505.43,1107.86L4506.13,1089.86L4510.56,1072.89L4525.43,1074.37L4534.43,1073.87L4536.31,1093.95L4532.43,1107.86L4521.45,1120.03L4525.04,1135.84L4517.38,1144.42L4509.43,1140.86L4510.01,1136.86L4508.01,1131.38L4505.43,1132.86L4500.43,1126.86L4498.43,1108.86L4505.43,1107.86Z" style="fill:#3b3b3b;"/>
    <path id="Hawaii" d="M361.954,1045.87L375.803,1058.28L365.954,1064.87L362.954,1064.87L361.954,1045.87ZM344.957,1035.87L346.956,1035.87L347.956,1039.87L344.957,1035.87ZM340.957,1031.87L348.956,1031.87L348.956,1033.87L340.957,1033.87L340.957,1031.87ZM328.959,1023.87L330.958,1023.87L334.958,1030.87L325.959,1028.87L325.959,1026.87L328.959,1023.87ZM302.962,1018.87L306.011,1017.05L306.011,1021.22L302.962,1018.87Z" style="fill:#3b3b3b;"/>
    <path id="Africa" d="M3422.79,909.887L3425.02,917.886L3433.57,934.884L3440.57,938.883L3443,939.883L3446.15,944.372L3453.1,953.171L3453.1,961.88L3461.56,976.878L3461.67,967.603L3466.66,958.531L3470.2,957.75L3474.41,964.88L3473.08,970.392L3474.1,974.403L3470.87,979.484L3469.56,984.877L3475.56,985.877L3476.56,989.877L3498.55,987.317L3511.84,986.587L3535.51,964.02L3545.55,957.881L3551.17,983.877L3559.55,990.907L3580.25,997.036L3597.55,1011.87L3583.42,1034.88L3571.55,1041.87L3566.55,1065.87L3551.97,1070.15L3545.42,1079.86L3531.7,1084.17L3525.41,1093.84L3513.56,1095.12L3489.58,1102.91L3478.5,1117.84L3458.56,1124.83L3451.57,1127.49L3442.57,1129.79L3429.48,1139.28L3417.57,1141.08L3400.57,1148.48L3386.61,1149.75L3375.99,1157.41L3368.58,1159.08L3353.79,1159.08L3347.46,1143.86L3344.48,1135.86L3340.84,1120.86L3339.64,1100.95L3331.36,1087.04L3323.14,1078.83L3310.33,1054.99L3303.54,1048.78L3287.86,1034.7L3284.06,1009.87L3272.55,991.267L3260.74,983.577L3258,974.879L3248.59,967.879L3249.59,959.88L3227.55,931.534L3219.42,929.951L3221.07,925.632L3224.44,906.795L3220.57,912.477L3219.12,920.803L3216.35,925.112L3216.1,932.122L3210.6,932.404L3203.18,927.035L3195.76,915.886L3188.84,901.888L3188.84,910.887L3198.02,925.795L3202.02,930.164L3208.33,943.882L3210.66,950.882L3226.27,978.878L3231.43,986.877L3235.86,1004.82L3252.61,1019.05L3254.23,1024.87L3257.59,1036.87L3260.93,1063.85L3271.59,1075.87L3288.27,1105.86L3291.59,1116.86L3294.59,1119.86L3301.58,1123.86L3320.14,1132.99L3325.87,1139.49L3335.58,1151.86L3344.86,1156.28L3351.38,1164.54L3350.58,1170.85L3340.58,1175.85L3351.09,1178.5L3367.58,1193.29L3390.57,1187.98L3398.57,1187.98L3409.57,1182.85L3418.57,1182.85L3427.57,1180.02L3439.57,1179.29L3455.56,1176.41L3460.07,1171.26L3468.98,1172.02L3466.56,1187.85L3463.77,1197.94L3461.51,1209.85L3452.61,1225.76L3448.03,1231.94L3445.32,1237.85L3438.36,1249.84L3433.48,1261.84L3393.57,1310.75L3370.58,1325.27L3339.93,1354L3320.85,1377.85L3310.28,1387.05L3303.6,1391.97L3301.86,1397.65L3298.36,1403.87L3287.59,1419.82L3282.63,1441.81L3291.95,1454.1L3290.62,1461.82L3290.62,1469.82L3294.03,1487.81L3297.51,1498.49L3306.7,1507.03L3306.7,1521.98L3307.41,1528.81L3308.48,1545.9L3309.04,1559.72L3309.04,1579.8L3297.2,1597.01L3284.42,1605.31L3277.59,1607.35L3263.59,1613.68L3245.22,1632.22L3237.59,1635.93L3224.84,1647.97L3226.42,1664.79L3232.04,1681.88L3232.04,1711.79L3216.6,1723.11L3192.3,1734.96L3189.6,1740.78L3193.01,1751.78L3189.81,1763.78L3182.5,1780.65L3168.82,1792.78L3154.09,1814.77L3140.77,1826.14L3123.61,1841.62L3098.61,1855.86L3084.61,1859.77L3070.52,1862.39L3053.62,1857.77L3044.62,1857.77L3034.71,1860.96L3025.62,1865.47L3009.62,1867.1L2994.63,1871.26L2976.62,1860.77L2967.63,1840.77L2973.01,1828.77L2958.41,1804.77L2949.24,1784.5L2929.46,1760.78L2921.95,1735.78L2921.08,1724.78L2917.15,1713.79L2916.54,1701.79L2917.63,1692.79L2901.91,1665.79L2897.28,1654.79L2888.14,1637.8L2877.7,1623.22L2875.64,1605.8L2877.18,1586.8L2883.71,1568.8L2885.05,1560.89L2888.81,1549.81L2901.5,1535.87L2906.62,1518.81L2897.22,1493.81L2900.64,1480.82L2891.26,1455.82L2886,1446.82L2880.05,1426.82L2874.96,1418.1L2863.19,1402.45L2862.64,1396.83L2855.7,1395.81L2847.64,1380.04L2841.05,1380.04L2833.96,1364L2838.64,1351.83L2845.64,1351.83L2845.64,1347.83L2842.64,1347.83L2846.64,1332.83L2848.19,1310.84L2851.64,1295.84L2834.23,1287.76L2830.21,1283.47L2829.64,1278.84L2824.64,1277.84L2824.64,1281.84L2801.65,1283.84L2785.18,1282.33L2758.65,1253.22L2721.66,1257.59L2711.53,1263.53L2702.66,1264.64L2690.66,1270.28L2670.66,1277.4L2655.66,1273.85L2620.67,1273.12L2596.67,1280.35L2584.67,1283.62L2569.51,1277.18L2551.77,1264.69L2546.51,1259.69L2538.1,1255.16L2512.68,1239.85L2512.68,1233.85L2504.77,1228.98L2498.47,1212.87L2488.58,1201.65L2482.01,1197.41L2476.17,1191.41L2465.69,1178.85L2463.69,1179.85L2448.71,1167.53L2448.02,1142.86L2442.11,1127.86L2449.96,1113.86L2452.9,1099.86L2458.17,1084.87L2450.69,1058.87L2453.58,1045.89L2444.57,1035.44L2444.57,1024.87L2452.42,1011.75L2462.12,991.157L2474.95,978.788L2477.16,969.879L2482.58,957.071L2495.18,947.702L2504.73,931.474L2522.67,926.055L2532.69,918.696L2538.68,915.406L2552.82,899.898L2551.77,883.89L2558.95,867.892L2562.27,860.173L2576.68,848.395L2597.35,837.796L2606.36,822.898L2611.17,813.829L2619.67,811.899L2647.67,821.728L2653.58,821.098L2670.66,823.028L2683.75,815.349L2696.62,812.309L2703.75,807.31L2716.66,802.58L2736.66,800.701L2763.65,796.941L2782.07,800.061L2798.65,797.071L2810.65,796.081L2822.64,796.881L2846.64,790.922L2852.77,792.642L2855.64,798.901L2862.64,797.901L2858.09,806.19L2865.64,814.899L2861.45,829.577L2851.89,837.156L2857.56,843.695L2865.64,841.895L2877.64,853.504L2896.64,856.983L2912.63,859.213L2919.63,862.103L2928.9,865.402L2937.65,878.801L2950.63,881.18L2968.63,886.32L2986.62,894.979L3000.82,882.89L3000.82,866.932L3030.62,856.064L3046.62,859.893L3057.62,867.502L3075.61,869.892L3079,875.841L3088.61,875.841L3104.61,878.011L3114.65,881.52L3128.61,884.18L3137.61,886.15L3147.6,881.58L3165.6,875.971L3181.6,879.171L3189.02,882.84L3195.6,882.84L3209.6,881.84L3219.94,874.346L3223.5,859.063L3231.21,843.065L3239.59,831.897L3240.87,824.217L3428.14,898.842L3422.79,909.887ZM3424.57,1552.81L3432.29,1544.09L3435.79,1534.42L3447.29,1542.98L3452.88,1568.8L3456.56,1581.8L3443.57,1582.8L3446.24,1598.76L3441.76,1609.8L3440.75,1620.8L3433.41,1642.79L3427.6,1659.79L3422.48,1676.79L3418.61,1686.79L3416.83,1694.79L3410.3,1714.79L3405.1,1724.86L3391.57,1729.26L3379.57,1733.69L3371.41,1730.83L3364.6,1728.13L3354.35,1710.79L3354.35,1700.64L3347.77,1682.79L3351.58,1668.79L3360,1658.79L3365.51,1649.37L3363.26,1636.8L3358.72,1613.8L3365.58,1592.8L3384.85,1586.68L3391.57,1584.79L3407.45,1575.03L3415.57,1563.8L3419.57,1556.81L3424.57,1556.81L3424.57,1552.81ZM3502.56,1159.86L3516.56,1161.86L3512.56,1164.86L3502.46,1164.3L3502.56,1159.86ZM2463.69,927.885L2468.69,927.885L2468.69,932.884L2463.69,932.884L2463.69,927.885ZM2447.69,923.885L2452.69,923.885L2452.69,928.884L2447.69,928.884L2447.69,923.885ZM2489.69,918.886L2491.69,918.886L2486.69,927.885L2489.69,918.886Z" style="fill:#3b3b3b;"/>
    <path id="N.-America" serif:id="N. America" d="M1516.09,1217.58L1511.72,1215.73L1503.81,1216.85L1503.81,1221.85L1492.81,1226.85L1498.81,1238.85L1483.81,1231.85L1471.71,1227.74L1455.12,1224.25L1448.82,1217.85L1450.82,1223.85L1443.46,1212.95L1431.51,1205.95L1422.82,1197.85L1422.82,1205.85L1413.84,1198.71L1415.82,1181.85L1396.5,1166.28L1388.85,1158.68L1384.83,1148.86L1358.83,1147.49L1352.25,1146.09L1340.83,1141.39L1323.83,1137.65L1292.26,1110.58L1273.84,1107.55L1250.84,1114.55L1240.84,1111.45L1231.85,1109.2L1216.85,1102.24L1204.85,1099.23L1185.85,1091.32L1170.81,1081.32L1149.94,1075.76L1141.77,1068.4L1116.86,1042.87L1121.04,1042.87L1121.04,1029.08L1116.86,1022.77L1113.5,1012.88L1104.87,1003.44L1090.86,988.497L1081.53,981.718L1072.83,972.269L1061.18,965.35L1059.64,953.031L1053.24,948.882L1040.87,940.883L1039.87,931.884L1014.87,915.886L1008.91,900.888L1003.59,889.889L1001.27,883.32L996.044,880.031L977.877,877.891L982.906,899.788L992.765,908.187L1005.57,922.885L1010.36,932.714L1020.61,944.782L1027.05,950.992L1030.71,961.87L1037.99,973.599L1041.42,984.567L1050.17,987.987L1051.92,1005.46L1043.53,996.676L1016.87,978.878L1014.34,958.371L998.874,948.602L987.866,944.062L979.877,932.884L988.875,921.885L977.787,912.616L964.728,903.498L957.919,888.959L951.24,878.311L948.46,871.892L944.511,865.892L937.492,851.074L925.253,843.455L919.784,839.486L913.975,838.466L901.886,831.887L892.398,831.887L888.998,824.068L879.889,806.9L874.89,793.901L861.891,779.903L854.892,779.903L844.284,765.625L841.114,753.187L833.905,743.908L837.594,728.91L832.165,706.912L836.645,692.914L839.894,663.918L835.905,642.92L828.896,623.923L840.894,626.832L860.892,626.832L855.892,602.925L852.893,599.926L849.893,600.926L851.893,602.925L851.893,603.925L844.894,603.925L843.894,602.925L838.894,595.926L837.894,598.926L829.895,597.926L829.895,593.927L825.896,590.927L811.808,589.197L806.068,588.387L798.899,585.928L798.899,582.928L782.641,570.34L769.903,564.52L757.905,548.932L746.906,544.933L747.906,537.934L747.906,525.935L736.907,515.936L725.909,517.936L712.08,508.257L706.911,505.938L703.141,493.939L697.912,489.94L689.913,479.941L690.913,489.94L681.914,491.939L679.184,482.941L678.075,474.942L670.915,464.943L672.915,474.942L660.917,473.942L654.917,469.942L658.917,476.941L674.915,478.941L679.914,503.938L674.915,503.938L670.845,498.429L662.916,491.939L653.918,475.941L625.921,465.383L606.924,459.943L605.924,452.944L562.929,449.825L542.932,449.825L528.923,447.625L520.934,447.625L508.936,445.945L508.936,440.946L495.758,436.736L477.94,440.946L478.94,449.945L459.862,451.325L451.773,455.334L443.114,458.374L426.946,461.943L428.946,455.944L427.246,444.865L429.907,440.532L449.943,435.946L430.506,439.556L429.907,440.532L418.967,443.036L411.578,450.925L404.949,451.944L403.379,454.774L387.951,462.943L398.95,464.943L391.271,473.082L383.912,478.911L376.953,480.481L358.725,488.83L351.826,494.599L340.047,498.589L323.959,502.938L323.959,509.937L315,511.637L308.791,513.697L303.962,513.697L277.965,519.936L277.965,515.936L271.966,523.935L258.967,523.935L260.567,518.236L284.964,509.317L291.963,511.937L293.703,506.328L318.96,496.939L331.568,485.61L341.957,468.942L320.96,468.942L314.94,473.572L306.241,468.402L293.093,466.553L280.965,468.942L271.966,470.942L271.966,455.944L259.517,451.924L242.969,453.764L228.951,447.815L221.762,442.606L221.762,435.946L205.974,429.947L205.974,421.948L208.974,421.948L218.602,405.67L234.97,396.132L255.968,400.511L265.966,397.431L275.965,397.431L287.964,393.952L282.964,380.953L286.964,380.953L275.965,379.074L254.688,382.793L238.97,381.953L225.972,383.693L212.973,382.233L205.244,381.213L201.435,377.374L195.975,369.955L181.977,367.955L181.977,362.956L198.975,357.976L242.969,350.957L242.969,357.956L253.968,357.956L276.965,354.957L270.966,354.957L262.057,349.167L254.928,345.498L244.379,343.398L237.92,337.299L224.972,332.29L205.764,324.581L205.764,315.962L216.973,316.782L223.972,316.052L245.969,311.832L254.278,302.573L275.965,295.084L305.961,287.285L332.958,286.035L357.955,278.966L386.951,284.556L396.95,283.996L414.948,286.205L436.945,290.965L457.942,290.965L480.939,293.784L494.938,296.384L504.936,296.384L526.934,299.784L543.931,297.284L578.927,303.653L599.924,305.063L607.923,305.643L614.923,304.963L626.921,311.542L656.917,315.962L654.917,310.962L659.917,305.963L678.914,303.223L700.912,305.713L708.911,303.353L719.909,302.143L736.907,297.964L758.394,296.984L760.904,301.963L772.903,300.963L779.902,295.964L776.902,290.965L793.88,296.454L809.898,307.733L823.896,301.963L834.075,299.274L834.075,308.962L851.893,306.963L861.891,301.963L883.889,303.983L896.887,308.433L914.885,310.392L945.881,315.922L959.879,314.962L975.877,316.542L989.875,320.961L989.875,326.96L972.877,327.96L973.877,331.96L991.785,330.27L1003.87,333.959L1025.87,332.789L1039.7,330.5L1049.87,327.48L1060.87,326.57L1074.87,320.471L1087.86,318.881L1106.86,315.142L1122.86,320.261L1131.86,320.961L1131.86,326.96L1140.58,328.14L1148.86,328.14L1166.85,330.98L1191.85,330.98L1207.85,331.96L1224.85,322.961L1225.85,321.961L1207.85,311.962L1221.85,309.962L1247.84,305.753L1265.84,303.963L1259.93,303.423L1254.84,291.965L1251.84,279.966L1260.84,277.966L1270.84,270.967L1269.84,261.968L1264.84,251.97L1263.84,242.971L1270.84,242.971L1270.84,238.971L1299.84,236.972L1317.83,238.891L1327.83,238.891L1345.83,239.971L1345.83,244.971L1319.83,260.029L1296.84,258.969L1296.84,265.968L1288.84,271.967L1295.84,272.967L1295.84,275.967L1306.53,280.436L1310.14,286.895L1320.83,293.964L1325.83,293.964L1325.83,298.964L1314.83,303.963L1325.83,301.963L1336.83,305.083L1345.53,306.563L1351.83,314.962L1363.83,310.412L1371.83,313.732L1382.83,326.96L1387.74,338.669L1401.82,336.959L1395.45,331.58L1401.71,325.62L1405.82,330.96L1419.82,316.961L1418.82,299.964L1399.82,298.964L1399.82,295.964L1379.83,296.474L1355.83,287.965L1355.83,282.966L1383.83,283.966L1348.83,279.966L1350.83,272.967L1349.83,259.969L1353.83,259.969L1353.83,253.969L1363.84,249.79L1381.83,243.851L1399.82,241.881L1406.82,241.151L1421.82,241.971L1411.82,250.95L1400.82,257.969L1400.82,259.969L1406.82,264.968L1420.82,263.968L1421.99,249.65L1438.82,246.72L1469.82,243.011L1482.15,245.48L1489.82,243.031L1512.81,244.961L1527.81,244.411L1548.72,249.42L1556.8,252.97L1556.8,257.969L1547.81,258.969L1570.8,262.108L1578.8,266.108L1587.8,272.967L1593.8,276.037L1620.8,276.037L1633.79,283.966L1640.79,282.966L1640.79,287.965L1648.7,287.165L1653.96,288.075L1659.79,288.075L1673.79,289.965L1671.79,296.964L1691.79,304.963L1683.79,303.963L1694.79,307.963L1694.79,312.962L1681.79,311.962L1683.79,320.961L1695.75,321.471L1706.79,325.96L1706.79,329.96L1712.78,331.96L1721.78,328.8L1743.78,335.959L1743.78,338.959L1754.78,339.959L1754.78,343.958L1762.78,344.958L1777.6,353.647L1770.09,356.976L1765.91,363.686L1749.78,366.955L1749.78,375.954L1725.82,370.985L1704.78,357.856L1692.4,359.056L1692.95,364.695L1706.79,375.894L1724.78,383.953L1732.5,391.092L1738.78,391.952L1732.78,398.951L1732.78,401.951L1727.78,401.951L1727.78,406.95L1723.78,406.95L1723.78,409.95L1704.79,404.95L1695.79,404.95L1682.79,398.951L1709.8,416.579L1710.78,421.948L1684.79,418.379L1668.79,416.079L1645.79,408.95L1645.79,411.95L1631.79,404.95L1606.8,395.952L1591.22,387.183L1585.95,385.073L1568.97,383.703L1545.81,387.073L1528.83,382.523L1527.81,373.954L1537.81,371.955L1537.81,367.955L1555.76,366.255L1574.8,359.956L1599.8,340.958L1591.8,340.958L1591.8,337.959L1572.8,340.658L1552.8,342.048L1537.01,340.159L1535.81,323.961L1544.81,320.961L1526.81,310.962L1527.81,318.961L1523.81,318.961L1523.81,320.961L1529.81,320.961L1528.82,325.31L1512.82,330.92L1496.81,323.961L1515.81,323.961L1505.81,312.962L1516.42,306.333L1529.81,296.964L1514.81,294.964L1519.81,301.963L1509.81,301.963L1509.81,305.963L1495.98,307.723L1477.88,307.267L1477.81,306.963L1465.82,306.963L1477.88,307.267L1480.81,321.961L1469.82,323.961L1468.82,330.96L1480.57,340.958L1478.38,344.938L1471.9,346.958L1466.64,350.657L1449.75,355.657L1440.82,352.957L1447.82,365.955L1429.82,358.476L1418.82,351.957L1400.82,352.957L1400.82,355.067L1404.77,355.067L1406.61,361.796L1391.83,370.955L1392.54,377.144L1378.79,387.683L1354.15,391.082L1342.14,399.221L1339.26,405.78L1318.83,407.95L1318.83,414.949L1311.84,414.949L1311.84,417.949L1304.47,422.638L1296.52,426.558L1280.44,445.935L1284.01,467.013L1291.84,467.942L1296.84,467.942L1302.15,468.932L1306.07,474.902L1313.93,485.31L1318.05,490.75L1336.83,490.04L1354.83,494.889L1373.83,494.889L1373.83,500.938L1385.83,505.498L1391.83,506.748L1405.82,510.937L1405.82,514.077L1415.65,514.077L1421.86,516.096L1442.69,519.086L1462.82,517.446L1471.82,528.935L1467.53,540.933L1469.41,547.212L1486.81,550.932L1485.81,562.93L1486.72,568.54L1501.72,575.639L1509.07,571.479L1518.94,566.81L1516.92,560.611L1513.48,549.932L1506.81,538.934L1505.82,527.675L1518.81,525.055L1529.72,521.166L1546.23,509.717L1549.2,500.938L1548.1,492.939L1536.81,478.381L1519.83,470.382L1518.81,464.943L1531.81,453.944L1537.81,449.945L1535.77,448.945L1530.17,436.026L1532,428.967L1531.25,411.68L1534.85,411L1577.8,415.849L1591.8,413.139L1611.8,418.779L1619.8,423.948L1624.8,423.948L1642.79,433.067L1651.79,435.946L1653.79,435.946L1658.79,433.947L1658.79,438.946L1654.79,457.944L1665.79,465.943L1678.89,471.222L1687.79,474.942L1697.75,470.832L1702.21,467.892L1709.01,465.053L1718.72,452.354L1731.62,443.256L1744.39,457.024L1755.78,471.942L1761.78,471.942L1774.78,481.941L1775.78,491.939L1783.78,496.939L1780.78,505.938L1794.77,512.937L1804.77,521.936L1815.33,522.666L1822.86,527.045L1833.77,535.934L1844.94,541.593L1853.6,543.473L1863.7,546.933L1863.7,558.891L1865.12,566.88L1854.77,574.359L1845.77,578.369L1825.77,581.868L1811.33,590.677L1804.94,593.897L1799.68,596.716L1791.77,596.716L1776.78,597.906L1757.78,596.016L1745.78,596.916L1733.78,595.926L1700.8,598.656L1690.1,608.975L1677.79,610.924L1666.88,618.314L1653.79,627.922L1655.79,632.922L1670.79,622.503L1718.78,610.924L1735.78,623.923L1720.78,629.802L1704.79,629.802L1714.78,634.921L1727.78,631.922L1724.78,642.92L1730.46,652.319L1742.83,660.928L1756.78,663.198L1762.78,664.288L1768.69,663.248L1778.79,668.477L1779.78,671.917L1761.78,677.306L1751.78,678.566L1741.78,682.915L1740.78,679.916L1717.78,696.124L1709.77,685.005L1725.95,673.327L1733.78,666.047L1722.87,666.047L1714.77,668.717L1695.96,670.137L1685.68,681.066L1663.79,688.915L1648.34,693.614L1644.55,698.203L1639.22,704.913L1634.79,715.911L1633.79,727.23L1594.8,735.909L1599.8,735.909L1599.8,740.908L1586.67,742.908L1586.67,755.316L1569.8,760.906L1573.67,770.994L1567.85,784.073L1559.8,792.902L1564.8,780.903L1555.8,775.904L1552.8,762.905L1553.8,777.903L1548.81,777.903L1552.8,791.902L1560.8,801.9L1563.8,802.9L1562.8,816.898L1554.06,820.488L1546.52,828.707L1536.25,834.106L1529.55,840.316L1517.81,844.465L1508.31,855.054L1490.86,864.442L1486.81,861.893L1486.81,869.892L1478.81,882.89L1474.81,882.89L1473.81,889.889L1480.84,901.888L1487.81,921.885L1490.81,921.885L1498.26,944.882L1494.85,968.919L1489.68,977.058L1477.81,979.878L1479.32,965.87L1472.69,957.621L1468.82,945.882L1460.82,934.884L1457.82,934.884L1459.14,917.906L1452.97,910.297L1434.82,898.888L1420.95,905.227L1414.69,899.378L1406.82,891.889L1393.82,891.889L1376.83,894.189L1363.83,894.889L1360.84,905.797L1365.83,913.886L1358.83,915.886L1357.83,910.887L1347.83,911.887L1323.83,911.257L1299.84,904.008L1291.84,905.337L1268.84,917.676L1244.52,932.904L1239.92,943.882L1242.2,964.88L1236.05,978.878L1233.85,1001.88L1232.84,1014.87L1237.68,1024.87L1241.47,1036.87L1251.98,1050.87L1263.02,1067.13L1273.8,1070.5L1284.84,1076.72L1303.55,1074.08L1311.01,1069.68L1324.83,1067.22L1336.83,1061.87L1335.83,1054.87L1340.83,1054.87L1342.78,1045.87L1343.85,1036.24L1358.83,1029.6L1377.83,1026.11L1392.81,1026.11L1391.69,1043.59L1388.42,1047.96L1387.52,1058.83L1383.68,1065.96L1380.83,1074.87L1376.83,1069.87L1377.78,1083.83L1375.54,1091.9L1374.13,1100.86L1367.83,1110.86L1379.83,1115.86L1390.83,1113L1396.78,1113.85L1421.82,1112.86L1436.82,1112.86L1437.82,1120.86L1448.82,1122.86L1449.69,1132.86L1443.09,1151.16L1437.82,1153.86L1440.82,1159.86L1446.82,1157.86L1443.82,1165.86L1442.08,1181.85L1445.06,1187.85L1458.14,1204.26L1462.3,1207.62L1468.09,1214.71L1480.81,1217.69L1492.81,1212.72L1519.81,1208.16L1524.26,1211.26L1518.36,1220.41L1516.09,1217.58ZM1600.8,1050.87L1618.79,1053.72L1635.79,1052.08L1651.79,1055.87L1672.79,1073.63L1652.79,1073.63L1645.85,1076.26L1641.79,1073.87L1633.79,1074.87L1624.8,1082.87L1620.61,1077.95L1597.8,1077.17L1591.8,1079.87L1582.8,1073.87L1582.8,1071.87L1614.8,1069.87L1600.8,1055.87L1600.8,1050.87ZM1524.81,1076.87L1534.81,1072.87L1555.8,1081.87L1547.81,1081.32L1537.82,1081.85L1524.81,1076.87ZM1691.79,1073.87L1708.74,1073.1L1711.74,1078.38L1699.79,1080.2L1691.79,1080.87L1691.79,1073.87ZM1434.82,1018.87L1435.84,1013.09L1451.82,1005.25L1457.82,1004.5L1467.82,1002.13L1477.8,1003.51L1494.64,1003.51L1512.81,1013.47L1530.77,1014.04L1548.85,1029.32L1563.8,1034.42L1570.8,1038.46L1587.8,1046.87L1580.8,1048.5L1570.8,1051.73L1550.81,1049.3L1537.81,1051.87L1543.81,1041.87L1525.94,1036.73L1517.76,1026.47L1505.81,1025.4L1492.81,1019.79L1483.81,1015.87L1475.81,1016.87L1475.81,1009.87L1459.82,1010.48L1449.36,1016.16L1434.82,1018.87ZM1526.81,969.879L1535.81,992.876L1524.95,981.788L1526.81,969.879ZM1541.81,972.879L1548.17,969.479L1556.8,976.878L1547.81,975.878L1547.81,979.878L1541.81,972.879ZM1514.41,940.903L1539.38,947.312L1542.12,957.501L1529.64,951.272L1518.83,951.272L1514.41,940.903ZM1782.78,656.919L1793.77,645.92L1782.78,657.919L1782.78,664.918L1777.78,664.918L1777.78,656.919L1782.78,656.919ZM1737.78,644.92L1752.78,653.079L1769.78,654.919L1759.78,659.368L1753.78,659.368L1733.78,650.919L1737.78,644.92ZM1890.76,636.921L1901.76,635.921L1901.76,638.921L1905.76,638.921L1905.76,648.92L1895.76,648.92L1896.76,642.92L1890.76,642.92L1890.76,636.921ZM1829.77,611.924L1833.41,598.926L1843.35,586.478L1859.77,576.929L1859.77,580.928L1862.77,580.928L1847.77,603.925L1861.77,598.926L1869.59,608.025L1873.89,609.045L1879.84,607.285L1891.7,608.505L1889.76,616.924L1890.76,621.923L1896.76,622.923L1887.27,634.232L1875.76,638.921L1875.76,635.921L1868.77,634.921L1855.77,635.871L1844.77,636.741L1826.77,635.291L1812.07,636.171L1812.07,629.942L1818.77,628.922L1822.77,623.923L1829.77,611.924ZM773.902,587.927L782.901,586.548L797.899,592.207L812.478,596.566L828.896,609.045L848.893,623.923L830.895,620.583L822.896,615.924L812.068,614.494L800.899,605.995L791.9,602.665L773.902,587.927ZM1742.78,601.926L1770.78,608.925L1770.78,613.924L1744.16,607.245L1742.78,601.926ZM46.994,570.929L56.993,572.929L45.994,575.929L46.994,570.929ZM83.989,563.93L88.989,563.93L88.989,568.93L73.991,569.93L73.991,567.93L83.989,563.93ZM703.911,535.934L724.909,538.934L721.469,545.103L721.469,547.942L727.388,560.831L733.908,568.93L706.951,548.892L703.911,535.934ZM172.978,548.932L183.977,548.932L165.979,556.931L167.979,551.932L174.978,551.932L172.978,549.932L172.978,548.932ZM191.976,540.933L203.974,540.933L191.976,547.932L191.976,540.933ZM228.971,533.934L230.281,528.225L251.968,524.935L251.968,529.935L238.97,531.344L228.971,533.934ZM702.911,510.937L710.91,510.937L710.91,517.936L714.91,517.936L714.91,522.936L708.911,522.936L708.911,519.936L703.911,519.936L702.911,510.937ZM1500.81,503.938L1518.18,505.348L1515.68,510.187L1500.81,511.937L1500.81,503.938ZM391.951,481.941L402.569,476.011L411.948,473.942L411.948,478.941L407.949,481.941L412.948,481.941L405.949,490.94L405.949,493.939L396.95,493.939L396.95,496.939L382.802,494.339L385.011,485.39L391.951,486.94L391.951,481.941ZM192.976,445.815L213.983,445.815L214.973,451.944L192.976,450.945L192.976,445.815ZM1674.79,440.946L1680.79,440.946L1680.79,445.945L1674.79,445.945L1674.79,440.946ZM1729.78,429.947L1724.8,429.417L1729.22,425.058L1729.78,429.947ZM1500.98,413.649L1509.23,414.839L1504.77,425.328L1500.98,413.649ZM1470.82,404.95L1469.8,409.54L1456.82,416.739L1448.82,416.739L1443.42,415.929L1448.82,406.1L1454.99,406.1L1464.82,404.95L1470.82,404.95ZM138.982,399.951L152.151,397.491L158.98,398.951L158.98,403.951L138.982,399.951ZM1421.82,362.186L1428.6,360.696L1439.99,370.895L1448.65,372.644L1459.82,377.364L1474.81,385.953L1492.81,389.952L1492.81,395.952L1483.81,398.651L1461.82,394.952L1461.82,390.952L1448.12,390.212L1443.55,394.592L1435.99,397.831L1421.82,403.771L1411.19,396.102L1392.83,396.951L1403.82,388.952L1406.34,372.954L1411.03,362.186L1421.82,362.186ZM122.985,394.952L131.983,394.952L131.983,399.951L122.985,399.951L122.985,394.952ZM0,314.962L36.995,325.13L67.991,333.589L83.16,342.378L93.988,342.958L122.985,345.258L135.023,350.917L145.672,355.347L142.982,361.956L142.982,365.955L132.893,367.845L116.985,375.954L113.986,375.954L113.386,382.643L103.987,385.913L77.99,379.414L68.991,378.464L61.992,375.954L31.996,368.955L21.997,363.956L18.998,363.956L18.998,357.956L3.999,358.956L8.999,363.956L0,373.954L0,314.962ZM0,275.967L33.996,278.966L33.996,284.966L11.998,286.945L0,286.945L0,275.967Z" style="fill:#3b3b3b;"/>
    <path id="Arctic" d="M1874.93,124.361L1884.76,116.987L1909.76,119.416L1918.76,121.926L1938.76,121.926L1921.75,117.267L1920.76,112.987L1935.76,112.987L1953.75,115.927L1961.75,115.927L1970.75,117.697L1985.75,119.276L2015.75,122.986L1997.75,118.506L1977.75,115.987L2002.75,110.987L1995.12,106.978L1996.49,103.978L2014.75,103.008L2032.74,101.289L2051.74,103.988L2065.74,103.358L2073.91,101.109L2090.74,101.109L2105.74,99.989L2120.73,98.689L2126.73,97.119L2161.31,97.119L2173.73,96.029L2186.72,96.029L2198.72,96.989L2225.72,96.989L2248.72,98.899L2259.72,98.169L2266.71,98.899L2279.71,103.988L2303.71,102.988L2303.71,107.988L2311.71,107.128L2337.7,108.818L2348.4,109.728L2348.4,115.477L2336.71,117.067L2319.71,117.067L2301.71,118.986L2229.72,118.986L2216.72,120.776L2196.72,122.156L2180.72,123.986L2180.72,125.986L2193.72,124.156L2225.72,122.036L2238.72,120.946L2253.72,120.946L2266.71,119.986L2279.71,120.986L2296.71,120.986L2296.71,125.986L2271.71,128.985L2320.71,124.986L2320.71,120.986L2344.7,119.986L2355.04,126.775L2335.71,136.984L2371.53,127.705L2385.7,128.915L2414.66,128.915L2431.78,123.086L2501.68,124.986L2501.68,129.985L2483.69,133.855L2467.69,133.855L2467.69,137.984L2444.69,140.904L2436.27,141.508L2441.69,141.984L2441.69,146.983L2419.7,147.983L2407.7,149.983L2428.69,148.983L2428.69,153.982L2404.7,157.982L2409.7,163.981L2412.7,163.981L2392.79,167.26L2381.7,176.979L2391.61,175.329L2400.65,178.479L2406.97,173.43L2415.7,171.98L2412.7,181.978L2412.7,186.978L2403.7,185.978L2402.7,188.978L2412.7,190.977L2427.4,193.987L2419.7,204.976L2411.7,198.976L2415.7,197.976L2404.79,198.696L2389.7,196.977L2388.7,199.976L2396.7,201.976L2396.7,205.975L2402.7,205.975L2408.83,215.184L2409.35,219.834L2395.38,220.944L2389.7,220.944L2399.7,223.973L2399.7,229.972L2412.7,229.972L2402.71,236.852L2378.7,239.971L2392.7,240.971L2392.7,248.96L2379.7,248.96L2363.7,251.64L2342.72,247.53L2332.71,243.971L2329.71,247.97L2368.7,254.969L2368.7,259.969L2362.7,259.969L2361.7,266.968L2345.7,264.378L2334.1,261.039L2330.71,254.969L2327.71,254.969L2326.71,258.969L2334.71,264.238L2357.7,269.967L2357.7,273.967L2361.7,273.967L2362.7,278.966L2374.7,276.967L2375.7,293.964L2361.7,290.965L2359.29,293.394L2337.97,289.455L2330.69,282.686L2318.71,278.966L2319.71,290.965L2302.71,296.964L2319.71,294.144L2356.7,297.964L2356.7,302.963L2313.71,317.191L2296.71,320.281L2289.71,321.871L2274.71,324.041L2241.72,329.01L2223.18,329.01L2217.55,332.32L2206.81,336.969L2198.44,343.428L2194.09,345.878L2183.72,352.837L2169.73,357.456L2152.73,360.956L2138.73,366.525L2128.73,363.956L2114.74,368.365L2103.32,374.304L2096.6,377.754L2095.74,385.953L2090.94,385.953L2090.94,394.742L2085.45,400.441L2067.74,409.95L2066.87,424.688L2057.74,441.946L2052.74,442.946L2037.74,452.624L2028.74,450.405L2020.98,448.775L2017.75,442.946L2004.75,440.356L1993.33,438.906L1977.75,439.946L1977.75,435.946L1971.75,431.947L1956.26,423.748L1951.57,418.509L1944.89,414.409L1939.47,407.36L1933.44,403.271L1917.77,386.413L1915.08,377.404L1909.35,370.805L1900.76,362.956L1895.45,349.297L1891.76,344.488L1894.76,332.959L1918.76,319.591L1926.76,320.971L1930.76,320.971L1935.76,306.963L1924.71,300.704L1914.76,299.354L1891.76,295.964L1910.76,300.854L1919.76,307.963L1896.76,311.782L1882.59,307.503L1876.77,305.223L1878.63,296.704L1891.76,293.964L1885.76,286.965L1908.76,288.265L1923.1,291.485L1928.76,286.965L1920.76,287.965L1920.76,283.966L1904.76,282.966L1904.76,277.966L1897.76,273.967L1890.59,278.406L1873.76,279.246L1864.77,275.837L1864.77,265.308L1858.57,260.429L1858.57,246.97L1857.77,245.97L1847.77,246.97L1850.77,240.971L1841.77,233.972L1825.77,221.973L1810.68,215.274L1804.77,214.464L1792.77,211.205L1763.5,207.825L1755.78,208.875L1738.78,208.875L1726.77,210.945L1705.88,209.525L1698.75,210.925L1678.79,209.805L1654.79,204.976L1654.79,198.976L1637.08,197.237L1637.08,191.717L1644.79,190.897L1658.79,190.897L1677.79,188.978L1699.79,187.978L1691.79,186.998L1684.79,187.938L1664.79,187.938L1647.96,186.778L1641.75,185.018L1628.8,183.658L1606.8,178.979L1606.8,173.979L1613.8,171.39L1629.8,169.81L1638.79,168.14L1652.79,166.77L1666.79,163.271L1696.79,161.981L1725.78,156.982L1722.78,149.983L1706.79,149.983L1696.79,153.982L1685.79,149.983L1697.79,141.704L1711.69,138.884L1736.78,134.984L1747.78,132.985L1763.61,135.004L1769.78,133.985L1771.78,127.985L1768.78,122.986L1782.78,122.026L1795.77,122.986L1798.08,119.586L1806.77,118.986L1821.77,118.027L1835.35,118.027L1841.77,116.997L1849.77,116.997L1863.77,115.987L1874.93,124.361L1872.76,125.986L1875.76,124.986L1874.93,124.361ZM2452.69,352.957L2464.69,356.956L2477.69,363.956L2493.21,367.115L2492.54,377.194L2474.69,386.543L2462.69,387.993L2440.69,390.952L2434.69,391.952L2418.7,398.671L2394.7,396.341L2383.87,393.152L2370.7,391.952L2363.7,378.954L2358.7,378.954L2358.7,373.954L2362.7,373.954L2367.7,368.955L2354.7,367.125L2341.01,368.315L2338.7,362.956L2346.74,357.476L2358.7,358.956L2355.7,352.957L2377.14,359.846L2383.7,369.955L2394.7,358.956L2408.7,362.956L2408.7,358.956L2424.69,359.956L2435.69,358.916L2442.69,357.336L2452.69,352.957ZM829.895,233.972L879.889,231.012L896.887,234.692L916.884,236.222L927.883,235.062L968.878,244.971L968.878,249.79L986.826,249.79L994.025,256.739L1004.87,254.229L1031.87,257.969L1031.87,261.968L1044.87,254.969L1071.87,259.969L1080.86,273.967L1086.86,269.967L1083.5,268.978L1077.36,256.969L1078.46,249.95L1103.86,249.95L1098.86,248.97L1098.86,243.971L1122.86,243.151L1132.86,244.971L1130.57,251.93L1122.86,260.009L1135.43,276.917L1132.86,283.966L1143.44,287.835L1153.86,289.015L1168.85,293.834L1185.25,297.984L1186.85,304.963L1173.17,309.132L1173.85,315.962L1157.85,318.781L1147.86,317.961L1121.86,316.961L1121.86,313.962L1103.86,312.962L1091.85,314.742L1082.86,315.962L1063.87,319.791L1037.87,322.921L1024.87,322.281L1014.87,322.961L998.644,321.181L989.855,312.082L969.878,312.082L947.881,307.503L940.871,303.403L939.882,297.964L972.877,294.964L987.876,294.964L1010.78,295.614L1017.87,292.965L987.876,290.055L954.88,292.955L934.882,290.985L925.883,287.965L925.883,282.966L949.88,278.966L927.923,279.746L912.885,275.967L926.883,264.968L932.882,256.969L916.894,260.619L909.715,265.318L894.887,269.967L893.867,275.547L876.89,279.596L851.893,283.686L838.894,275.637L812.898,270.967L823.896,255.969L830.895,255.969L833.895,244.971L840.894,242.971L829.895,238.971L829.895,233.972ZM1168.85,316.961L1173.85,316.961L1173.85,321.961L1168.85,321.961L1168.85,316.961ZM1189.85,313.962L1198.85,312.962L1189.85,319.961L1189.85,313.962ZM1190.85,287.965L1195.85,287.965L1195.85,292.965L1190.85,292.965L1190.85,287.965ZM1179.85,249.97L1192.85,240.961L1199.85,240.311L1207.85,240.311L1214.85,239.261L1233.85,237.971L1233.85,240.971L1242.84,248.97L1250.84,251.97L1252.84,264.968L1232.02,276.507L1216.85,280.876L1201.85,273.797L1191.85,269.437L1178.85,265.888L1172.94,265.888L1159.85,260.969L1182.85,257.999L1191.85,256.969L1179.85,249.97ZM3108.61,257.969L3114.61,257.969L3114.61,262.968L3108.61,262.968L3108.61,257.969ZM3068.61,231.972L3079.61,230.972L3068.61,236.972L3068.61,231.972ZM1360.83,204.976L1377.83,215.794L1385.83,215.014L1402.82,217.294L1416.82,214.584L1429.82,213.844L1437.82,212.105L1450.82,212.945L1459.82,212.015L1469.82,212.015L1487.81,214.714L1496.81,215.274L1505.82,218.674L1506.81,227.973L1490.81,231.972L1485.81,231.972L1449.82,228.973L1438.82,232.832L1407.82,232.832L1398.86,233.782L1388.4,233.782L1372,232.702L1365.79,230.722L1356.83,231.882L1344.83,231.882L1336.83,230.692L1320.94,229.632L1311.84,222.973L1316.83,214.974L1313.83,210.975L1301.84,206.385L1291.84,206.955L1277.84,206.955L1284.84,209.975L1299.44,224.983L1282.84,230.972L1267.84,229.063L1252.84,228.413L1245.84,225.513L1230.85,228.973L1214.86,226.233L1205.81,227.913L1187.85,216.974L1157.85,217.974L1157.85,213.974L1132.86,198.976L1161.85,204.976L1161.85,207.975L1169.27,207.165L1176.94,199.936L1216.85,198.976L1227.85,200.176L1235.84,213.974L1243.97,214.944L1251.79,212.315L1260.84,215.034L1273.84,213.974L1273.84,209.975L1264.67,205.376L1241.84,201.976L1238.84,198.976L1238.84,193.977L1249.84,194.797L1260.84,193.977L1260.84,190.977L1268.84,190.977L1268.84,193.977L1295.84,196.297L1306.88,199.846L1324.83,198.976L1336.74,199.516L1342.92,197.277L1359.83,195.837L1367.83,193.697L1387.83,191.977L1387.83,189.977L1382.83,189.977L1382.83,186.978L1378.83,186.978L1378.83,182.078L1405.82,182.078L1418.82,185.978L1416.82,178.979L1408.82,179.839L1401.82,178.909L1391.83,178.909L1385.44,174.359L1394.82,167.98L1357.83,175.979L1346.83,175.979L1331.83,177.979L1302.84,173.03L1291.47,165.381L1308.84,158.981L1280.84,161.801L1274.84,161.071L1261.84,155.982L1254.84,154.982L1254.84,149.983L1271.84,148.983L1257.86,147.383L1256.84,139.984L1263.84,139.984L1274.84,135.264L1285.01,134.255L1295.84,130.985L1313.83,132.835L1320.83,136.104L1336,141.524L1355.83,142.983L1368.83,148.983L1368.83,143.983L1379.83,149.983L1393.82,149.983L1404.82,145.983L1414.82,146.943L1431.82,146.943L1454.82,149.983L1454.82,144.983L1480.81,143.983L1509.81,139.984L1510.81,134.984L1492.81,139.824L1453.82,142.983L1436.82,139.984L1436.82,142.983L1415.82,143.943L1400.82,142.983L1400.82,137.984L1406.82,135.984L1382.83,141.884L1355.83,138.984L1355.83,135.984L1344.83,135.984L1344.83,129.985L1340.83,129.985L1340.83,125.986L1335.83,125.986L1335.83,121.046L1355.83,121.046L1371.83,119.076L1386.25,120.736L1393.82,119.986L1393.82,115.987L1436.82,115.417L1456.82,109.988L1473.81,107.948L1483.81,107.948L1499.81,106.248L1507.81,106.248L1520.81,107.988L1531.81,104.378L1579.8,102.988L1639.79,103.988L1650.79,105.228L1666.79,105.988L1693.79,105.988L1693.79,108.988L1710.78,107.958L1717.74,107.088L1725.82,108.768L1738.78,107.988L1738.78,110.987L1748.87,113.757L1772.78,113.757L1772.78,118.986L1726.78,124.986L1685.79,129.985L1699.79,128.985L1699.79,133.985L1691.79,136.024L1681.79,137.354L1674.79,139.304L1664.79,141.114L1650.79,145.603L1640.79,147.723L1630.8,148.983L1634.79,148.983L1634.79,153.982L1617.8,155.662L1607.84,155.142L1600.71,157.692L1574.8,159.981L1559.8,160.981L1579.8,160.981L1579.8,165.981L1575.8,166.98L1579.8,166.98L1579.8,171.98L1571.8,172.98L1565.8,176.979L1554.08,181.938L1532.81,181.938L1523.81,191.977L1533.81,200.976L1515.81,204.346L1487.81,207.965L1470.07,203.836L1459.82,204.976L1443.82,203.976L1434.65,205.735L1418.82,206.655L1397.82,204.976L1360.83,204.976ZM1058.87,194.977L1075.86,208.975L1091.86,210.645L1098.86,209.185L1115.71,210.125L1111.11,223.733L1101.86,225.433L1077.86,226.973L1064.87,226.103L1057.87,227.713L1046.87,228.483L1034.87,231.772L988.875,232.972L988.875,226.973L1013.87,222.973L998.874,224.253L991.165,224.253L988.875,221.973L968.878,225.463L961.879,225.463L946.881,222.973L936.882,222.973L945.601,211.345L956.789,205.995L962.049,203.786L981.876,201.976L993.965,205.396L1000.87,205.396L1017.96,208.875L1025.86,210.845L1037.87,215.974L1064.87,215.974L1056.87,213.974L1057.87,207.975L1046.87,206.975L1046.87,201.976L1058.87,194.977ZM2416.7,218.974L2431.69,218.974L2431.69,224.973L2416.7,218.974ZM1131.15,218.714L1141.57,218.714L1140.71,224.823L1131.15,218.714ZM3175.6,216.974L3181.6,216.974L3181.6,221.973L3175.6,221.973L3175.6,216.974ZM3169.6,216.974L3174.6,216.974L3174.6,221.973L3169.6,221.973L3169.6,216.974ZM914.885,216.974L915.875,212.695L932.882,208.975L914.885,216.974ZM890.888,211.005L884.059,213.595L872.89,210.265L860.952,211.825L858.072,205.506L875.89,201.676L880.889,198.906L889.608,197.237L912.885,189.098L938.792,189.098L945.921,186.448L959.879,186.978L957.879,193.977L961.879,193.977L961.279,198.676L945.881,201.976L945.881,205.975L928.883,204.976L928.883,198.976L921.884,205.975L907.886,207.975L906.296,211.005L890.888,211.005ZM2968.63,147.973L2979.35,147.973L2996.62,145.033L3008.62,147.773L3018.45,147.233L3025.53,149.193L3030.99,146.373L3038.62,144.983L3038.62,148.983L3059.61,146.303L3088.61,147.983L3107.61,149.983L3106.62,154.332L3085.61,158.981L3086.61,164.981L3062.61,166.69L3054.62,166.69L3045.62,165.151L3036.62,165.941L3023.62,169.98L3036.79,174.639L3046.45,176.659L3062.61,181.978L3062.61,186.978L3043.62,190.957L3017.62,187.978L3021.62,180.979L2997.62,170.98L2988.62,173.979L2977.62,179.979L2978.62,186.978L2973.62,190.977L2958.63,196.977L2959.63,202.976L2943.59,201.816L2931.63,197.976L2931.63,194.977L2911.62,190.327L2910.63,185.978L2915.63,184.978L2903.63,177.889L2920.63,177.889L2935.63,174.979L2935.63,172.98L2926.22,172.25L2920.34,174.559L2903.63,176.979L2882.64,172.41L2873.11,169.72L2868.86,165.271L2859.64,152.982L2874.64,152.022L2890.64,152.642L2907.63,151.982L2908.63,155.982L2928.33,155.092L2939.63,162.981L2933.63,150.982L2957.63,150.162L2968.63,147.973ZM1111.86,182.978L1133.86,188.978L1133.86,193.977L1112.85,188.448L1111.86,182.978ZM1330.83,184.978L1352.81,187.558L1353.83,191.977L1333.83,192.977L1330.83,189.977L1330.83,184.978ZM998.874,180.979L1010.87,179.019L1019.87,179.019L1040.87,177.979L1040.87,182.978L1048.87,182.978L1048.87,187.978L1010.87,189.518L998.874,180.979ZM1225.85,166.98L1253.8,169.45L1260.93,171.72L1272.27,173.15L1273.84,180.979L1266.84,181.978L1278.84,182.978L1299.84,182.978L1297.53,188.208L1262.84,188.208L1253.84,183.978L1234.84,176.979L1225.85,166.98ZM976.877,178.979L992.875,179.979L992.875,184.978L976.877,183.978L976.877,178.979ZM1114.86,158.981L1123.86,159.801L1139.86,158.981L1154.85,160.511L1163.85,163.251L1169.85,163.251L1185.43,165.621L1204.85,174.979L1213.85,176.979L1213.85,182.978L1196.85,182.978L1182.85,178.539L1165.84,176.609L1153.89,177.899L1146.77,176.329L1136.86,176.889L1127.86,175.979L1127.86,170.98L1140.86,168.98L1132.69,167.92L1125.86,167.92L1125.86,164.981L1114.86,164.981L1114.86,158.981ZM4194.47,175.979L4205.47,169.08L4230.47,158.971L4244.47,158.971L4244.47,163.981L4271.46,165.941L4281.46,173.979L4224.47,177.979L4194.47,180.979L4194.47,175.979ZM1019.87,170.98L1039.87,167.99L1059.87,170.98L1059.87,175.839L1019.87,175.839L1019.87,170.98ZM2527.68,163.981L2538.68,164.981L2538.68,170.98L2527.68,169.98L2527.68,163.981ZM4090.49,135.984L4114.48,133.645L4136.48,133.645L4150.47,138.574L4152.48,147.983L4173.64,150.922L4182.47,149.983L4202.47,151.982L4202.47,156.982L4199.47,156.982L4194.89,166.96L4178.47,168.81L4146.48,165.981L4121.52,164.651L4113.48,161.981L4113.48,158.981L4105.48,158.981L4105.48,153.982L4114.48,151.982L4097.48,154.882L4066.49,154.882L4066.49,149.983L4087.49,148.983L4076.49,148.983L4076.49,143.983L4090.49,140.984L4090.49,135.984ZM2571.68,149.983L2581.68,150.982L2581.68,155.982L2571.68,155.982L2571.68,149.983ZM2593.82,150.982L2609.67,149.983L2609.67,154.982L2593.82,155.752L2593.82,150.982ZM1211.85,149.983L1220.85,149.983L1220.85,154.982L1211.85,154.982L1211.85,149.983ZM3532.56,144.983L3537.55,144.983L3537.55,149.983L3532.56,149.983L3532.56,144.983ZM3553.55,143.983L3567.55,143.983L3567.55,148.983L3553.55,148.983L3553.55,143.983ZM3407.57,142.983L3426.57,142.983L3426.57,148.983L3419.57,147.983L3407.57,147.983L3407.57,142.983ZM3432.57,137.984L3441.53,137.044L3457.56,137.044L3457.56,142.983L3432.57,145.983L3432.57,137.984ZM3585.55,144.913L3590.57,138.384L3604.55,138.944L3623.54,137.984L3623.54,142.983L3606.55,145.893L3598.97,144.913L3585.55,144.913ZM3641.54,141.984L3643.14,137.004L3651.45,135.684L3656.71,133.525L3670.55,134.724L3671.54,138.984L3641.54,141.984ZM3539.55,129.985L3548.72,128.105L3559.55,128.105L3556.55,134.984L3557.55,140.984L3532.56,141.984L3524.56,135.984L3539.55,133.985L3539.55,129.985ZM3561.55,134.984L3567.55,134.984L3567.55,139.984L3561.55,139.984L3561.55,134.984Z" style="fill:#3b3b3b;"/>
    <path id="Europe" d="M3215.6,814.899L3216.6,815.899L3209.11,821.713L3211.41,825.076L3205.36,826.477L3194.64,831.299L3187.6,829.857L3184.64,825.478L3190.53,822.398L3193.91,821.882L3195.3,819.366L3203.6,819.568L3215.6,814.899ZM3052.62,816.898L3084.61,820.978L3093.61,820.978L3093.61,823.898L3073.7,825.777L3064.52,822.168L3052.62,816.898ZM3263.32,739.71L3254.32,805.958L3242.59,800.901L3230.59,801.55L3220.59,798.921L3209.32,805.51L3191.6,808.77L3178.59,802.12L3159.6,797.901L3156.43,805.38L3145.7,808.427L3138.86,805.45L3135.64,800.465L3129.61,798.901L3129.61,795.901L3122.28,799.376L3122.44,794.771L3113.61,794.771L3107.61,789.902L3108.61,779.903L3102.61,778.903L3104.61,765.905L3103.61,757.906L3103.61,755.906L3098.61,753.906L3091.61,756.906L3091.61,749.907L3094.61,749.907L3101.61,739.908L3092.78,740.628L3077.03,735.919L3066.78,736.679L3055.62,737.908L3054.6,744.308L3047.26,745.705L3040.62,741.908L3042.62,762.905L3061.14,771.404L3064.61,775.904L3043.62,766.905L3059.9,777.191L3060.61,783.903L3044.62,780.903L3050.62,786.902L3046.62,790.902L3040.62,786.902L3045.62,802.9L3037.62,797.901L3036.62,801.9L3028.62,794.901L3028.62,797.901L3022.62,794.901L3019.62,777.903L3025.62,774.894L3021.64,774.894L3016.62,762.905L2999.14,752.767L2991.94,745.517L2993.62,722.91L2979.35,713.801L2967.63,708.652L2953.63,700.263L2939.91,696.404L2930.15,690.364L2922.61,676.056L2913.63,669.917L2904.24,671.787L2905.63,663.918L2882.64,669.917L2886.36,685.735L2903.3,696.404L2911.05,709.822L2938.63,721.91L2938.63,727.91L2962.63,737.179L2975.62,751.907L2966.41,746.217L2960.63,744.558L2949.97,748.907L2947.63,754.906L2956.63,765.905L2934.63,780.903L2942.63,768.905L2935.05,751.217L2926.88,747.457L2920.52,740.628L2911.8,737.399L2903.63,731.509L2887.65,727.11L2873.48,716.231L2868.08,713.022L2857.64,705.912L2854.31,696.494L2837.64,684.655L2828.65,684.655L2820.57,690.734L2813.37,692.414L2794.65,699.913L2794.65,702.913L2775.61,699.723L2768.65,699.723L2756.65,698.503L2746,706.932L2744.42,722.86L2736.64,727.44L2730.66,730.439L2715.72,734.559L2710.14,741.038L2702.82,747.707L2702.82,769.904L2691.84,777.343L2686.17,785.882L2677.7,788.622L2669.45,796.881L2643.67,798.901L2629.67,802.21L2623.71,803.91L2614.66,808.63L2597.65,793.701L2581.68,794.601L2567.68,792.902L2566.66,775.214L2557.68,769.904L2564.41,753.057L2569.17,737.738L2569.68,713.911L2564.79,700.943L2572.76,699.023L2582.68,693.314L2595.67,695.964L2610.67,695.964L2629.95,699.003L2647.67,698.223L2658.66,698.223L2675.13,697.354L2682.66,665.918L2681.66,657.919L2668.88,649.3L2661.2,638.431L2652.67,635.761L2635.67,631.922L2633.67,619.793L2642.58,619.793L2651.67,617.984L2664.66,620.853L2674.62,617.614L2672.66,604.925L2680.66,604.925L2700.66,609.925L2718.55,598.776L2725.14,586.068L2737.66,582.788L2744.65,579.008L2761.8,568.76L2778.65,548.562L2790.65,547.182L2809.65,543.363L2826.41,538.614L2825.21,529.885L2825.21,521.786L2821.89,515.656L2821.89,501.938L2839.64,491.909L2850.64,486.09L2855.26,496.939L2855.26,503.848L2843.64,517.936L2842.64,524.935L2845.64,527.935L2849.64,527.935L2849.64,532.934L2860.64,539.933L2880.64,536.684L2889.64,533.164L2900.64,534.934L2900.64,537.934L2914.63,540.423L2939.62,535.684L2947.72,532.044L2971.62,527.205L2982.67,534.324L2998.62,525.935L3014.71,517.936L3014.71,503.938L3019.7,493.569L3025.64,486.75L3038.2,484.84L3059.61,493.689L3063.92,491.24L3065.33,478.661L3064.09,476.871L3055.1,473.772L3053.05,461.873L3062.61,458.944L3080.19,457.184L3117.76,457.184L3120.61,453.944L3132.61,452.064L3137.61,450.225L3147.6,447.945L3127.61,444.945L3127.61,440.946L3105.61,441.946L3085.61,446.105L3064.62,449.575L3056.53,451.834L3035.62,450.945L3035.62,447.945L3019.68,442.946L3019.68,434.947L3021.36,425.948L3018.44,403.371L3023.67,400.061L3034.62,400.061L3034.62,394.952L3039.79,392.482L3049.58,389.402L3062.44,382.083L3068.9,377.304L3080.61,373.954L3078.61,366.955L3059.61,362.996L3035.62,361.956L3034.62,366.955L3016.62,376.954L3011.45,391.582L2999.62,396.122L2977.62,402.951L2961.63,413.949L2959.52,437.646L2977.62,447.945L2983.62,454.944L2974.62,457.944L2973.05,464.053L2966.63,466.373L2958.8,468.412L2951.63,470.942L2947.33,489.98L2933.91,507.777L2913.83,512.727L2913.83,518.846L2896.18,518.846L2893.64,502.938L2884.77,495.639L2866.64,464.943L2859.64,456.944L2854.64,457.944L2856.64,463.943L2844.64,466.293L2827.64,475.681L2796.56,476.461L2782.65,465.943L2789.65,465.943L2791.65,459.943L2790.65,458.944L2778.65,460.943L2771.65,431.947L2774.65,431.947L2774.65,427.947L2777.67,426.948L2777.67,418.109L2793.65,414.949L2793.65,410.95L2805.74,406.21L2822.64,404.95L2822.64,400.951L2839.92,397.381L2847.07,395.642L2850.63,389.492L2856.81,384.883L2873.64,374.954L2888.64,363.956L2894.12,355.727L2897.49,351.137L2902.63,345.958L2919.63,341.958L2926.77,335.649L2927.63,328.96L2942.63,329.96L2945.63,326.96L2943.93,317.491L2951.5,319.181L2961.63,316.961L2961.63,313.962L2965.63,313.962L2964.63,306.963L2979.03,301.383L2980.62,297.964L2994.62,299.964L2995.62,305.963L2997.62,305.963L2998.62,301.963L3003.62,301.963L3003.62,307.963L3007.62,301.013L3024.62,301.013L3024.62,294.964L3042.62,293.094L3062.61,290.965L3077.81,288.275L3077.81,297.964L3099.61,286.965L3098.61,292.965L3104.61,292.965L3108.61,283.966L3121.61,283.966L3122.61,291.965L3132.61,287.075L3143.51,288.825L3159.6,296.964L3151.6,298.754L3140.6,299.964L3174.6,304.963L3188.6,308.023L3198.6,308.023L3205.6,309.372L3213.43,309.372L3219.62,310.832L3242.59,312.972L3265.59,319.501L3273.59,322.861L3281.59,324.661L3288.59,327.03L3299.58,329.57L3306.58,332.22L3314.07,334.809L3318.32,344.858L3310.58,352.067L3279.59,358.956L3251.59,356.127L3231.59,353.867L3221.59,351.277L3196.6,347.398L3188.6,343.958L3187.6,346.958L3200.01,353.177L3201.6,355.957L3220.59,359.956L3216.6,368.955L3222.39,375.574L3225.9,382.103L3238.59,385.463L3246.59,389.712L3269.59,389.712L3265.88,385.103L3252.17,380.573L3259.59,373.124L3268.68,375.974L3293.49,380.513L3304.58,376.954L3313.29,372.11L3276.29,644.301L3250.59,648.56L3233.59,652.549L3224.18,656.919L3227.68,667.287L3231.88,670.267L3249.59,667.917L3232.76,673.277L3225.58,677.066L3217.6,679.056L3205.75,683.155L3201.96,673.507L3186.6,668.917L3196.6,663.918L3194.31,660.898L3178.6,656.919L3178.6,652.919L3162.92,652.089L3154.59,660.508L3146.36,666.257L3143.67,675.606L3131.59,682.955L3127.59,696.604L3120.5,700.483L3117.44,707.652L3112.61,712.912L3125.61,728.46L3151.6,732.899L3167.51,732.899L3188.6,723.16L3214.6,720.001L3227.59,720.001L3241.59,724.91L3252.44,730.969L3257.16,737.978L3263.32,739.71ZM2926.74,798.741L2919.63,798.741L2911.63,794.451L2905.63,792.722L2896.64,788.492L2887.3,783.613L2896.89,777.373L2908.21,780.053L2928.63,777.903L2926.74,787.482L2926.74,798.741ZM2824.64,737.908L2841.25,733.479L2844.57,747.907L2844.57,753.906L2842.66,760.306L2835.65,761.955L2825.64,763.905L2828.64,756.906L2824.64,737.908ZM3138.61,738.908L3123.61,734.909L3101.61,743.908L3116.61,743.908L3113.61,741.908L3121.61,743.608L3134.61,742.908L3132.61,739.908L3138.61,738.908ZM2832.64,726.91L2829.89,718.741L2840.9,710.902L2839.05,725.89L2832.64,726.91ZM3276.2,644.941L3264.59,649.92L3271.59,655.919L3261.29,669.317L3253.59,669.917L3262.68,678.916L3268.59,680.746L3271.19,681.859L3276.2,644.941ZM2614.67,481.941L2620.78,478.121L2624.97,471.772L2632.76,471.772L2640.67,470.982L2651.67,470.982L2651.67,475.941L2638.67,485.94L2671.66,484.94L2657.66,506.938L2650.67,509.937L2666.66,511.327L2674.76,516.566L2681.14,527.795L2690.66,532.894L2698.19,540.863L2702.66,555.931L2723.43,557.381L2723.43,572.589L2713.66,577.929L2720.66,577.929L2719.67,582.248L2690.66,587.927L2681.49,589.527L2672.75,589.527L2666.57,590.797L2653.67,589.647L2644.43,595.126L2631.67,595.126L2622.67,599.086L2613.67,599.086L2613.67,596.926L2631.67,584.928L2635.67,584.928L2635.67,581.928L2647.67,579.928L2641.39,577.049L2630.63,574.789L2622.67,574.789L2622.67,569.93L2638.03,561.881L2636.67,555.931L2627.67,556.931L2633.67,554.931L2630.67,549.932L2650.97,547.502L2654.67,538.934L2646.67,526.935L2624.67,526.935L2629.67,518.936L2625.67,508.937L2618.67,509.937L2613.67,520.936L2615.67,509.937L2602.67,512.937L2617.67,501.938L2607.67,504.938L2607.67,498.939L2612.67,498.939L2615.67,491.939L2614.67,481.941ZM2572.68,530.935L2574.25,523.945L2584.67,521.776L2600.67,521.776L2608.23,522.926L2612.67,529.935L2616.67,529.935L2616.67,535.934L2604.67,539.933L2608.29,556.931L2604.67,566.93L2588.67,568.61L2558.72,577.619L2549.68,572.929L2564.68,550.932L2552.99,550.332L2555.68,541.933L2550.68,541.933L2565.68,535.844L2576.68,530.935L2572.68,530.935ZM2878.64,512.937L2887.64,508.937L2887.64,515.936L2881.64,523.935L2867.64,521.936L2878.64,512.937ZM2848.64,521.936L2858.9,517.756L2860.64,523.935L2848.64,521.936ZM2996.62,443.945L3001.62,443.945L3001.62,448.945L2996.62,448.945L2996.62,443.945ZM2677.66,441.946L2682.66,441.946L2682.66,447.945L2677.66,447.945L2677.66,441.946Z" style="fill:#3b3b3b;"/>
    <path id="Asia" d="M3265.22,646.135L3304.58,376.954L3300.46,374.004L3307.58,361.476L3320.58,358.186L3330.58,353.517L3343.58,352.957L3356.86,355.677L3364.41,347.088L3356.58,342.958L3362.58,320.961L3397.56,328.34L3398.57,332.959L3374.58,339.959L3395.57,345.958L3411.18,344.028L3419.66,335.389L3426.53,334.409L3431.85,332.38L3447.57,328.82L3465.56,322.491L3479.56,321.291L3509.56,325.96L3522.56,326.96L3532.56,321.711L3549.55,320.961L3560.55,317.961L3589.55,314.962L3588.55,321.961L3590.55,323.961L3595.55,322.961L3605.55,318.541L3612.55,313.962L3608.55,313.962L3602.55,304.963L3592.13,303.823L3582.6,301.163L3582.6,293.294L3593.55,295.684L3608.55,303.963L3613.55,302.103L3642.54,303.963L3679.54,311.372L3692.53,313.332L3710.53,316.961L3727.53,323.321L3733.53,317.961L3723.3,314.302L3716.44,308.533L3705.56,309.542L3705.56,294.964L3696.19,290.745L3703.81,280.416L3724.35,273.177L3740.53,255.549L3749.53,254.969L3750.55,249.57L3768.95,248.14L3765.51,254.159L3760.53,254.159L3751.53,255.969L3794.28,258.969L3794.28,264.668L3784.07,275.957L3779.52,276.967L3789.94,284.826L3786.52,294.964L3788.51,305.963L3789.29,314.692L3801.52,319.961L3796.52,334.959L3773.53,346.958L3773.53,350.957L3765.53,351.957L3765.53,354.957L3779.42,355.477L3786.62,350.957L3803.46,345.738L3809.79,339.089L3819.47,332.749L3816.5,325.54L3815.52,318.961L3825.52,316.961L3807.52,313.962L3804.83,304.793L3813.52,290.965L3798.94,278.846L3801.52,271.967L3823.46,265.578L3823.46,256.969L3834.17,264.998L3830.68,272.087L3830.68,279.966L3840.52,281.906L3857.51,281.906L3841.52,275.967L3850.26,268.008L3853.92,265.068L3867.51,260.969L3884.51,263.968L3912.23,268.378L3924.51,273.247L3947.5,271.967L3937.54,270.827L3929.47,266.388L3910.51,263.968L3911.51,255.969L3904.51,245.93L3916.51,245.93L3927.51,244.971L3945.5,244.971L3963.46,243.671L3970.5,241.211L3978.5,242.971L3979.5,235.972L3976.5,230.972L3979.5,230.972L3982.63,226.403L3996.5,225.543L4010.49,221.054L4020.49,221.054L4042.49,216.264L4061.49,214.884L4088.49,212.975L4096.48,208.395L4112.48,207.715L4119.48,205.975L4122.06,196.777L4137.44,196.777L4146.48,194.977L4147.48,203.976L4152.48,203.976L4153.48,208.805L4165.48,208.805L4172.47,207.235L4188.47,205.975L4188.47,202.976L4204.47,202.976L4214.16,201.236L4222.47,192.067L4269.46,183.978L4279.5,185.848L4289.46,192.977L4307.46,193.977L4307.46,198.976L4301.46,201.976L4317.46,201.976L4337.45,198.676L4350.45,198.676L4380.45,199.806L4387.41,200.406L4393.82,204.966L4401.28,206.555L4408.44,209.975L4406.44,216.974L4409.44,221.973L4385.45,228.973L4399.45,231.972L4393.45,239.971L4399.45,239.971L4402.44,246.97L4443.44,243.971L4469.44,245.97L4489.43,246.97L4489.43,251.97L4486.44,252.97L4503.43,252.18L4518.43,254.969L4539.39,253.02L4550.43,251.97L4549.58,243.961L4567.43,240.271L4585.59,244.431L4593.42,245.271L4599.42,247.26L4624.42,248.77L4640.39,255.279L4641.82,267.598L4638.42,274.967L4635.42,275.967L4646.41,281.446L4667.41,287.985L4689.32,271.357L4698.41,275.257L4711.41,278.796L4732.4,275.967L4743.4,275.967L4752.4,276.627L4761.4,275.967L4779.09,273.147L4787.67,264.248L4800.4,259.059L4812.39,256.039L4827.22,257.209L4838.39,258.969L4864.39,259.969L4881.39,261.968L4889.38,261.968L4912.38,264.968L4940.38,266.428L4950.38,268.968L4950.38,274.967L4975.37,280.496L4993.37,286.955L5031.37,283.966L5063.36,283.966L5091.36,288.135L5102.66,294.513L5096.36,301.963L5113.77,305.553L5143.35,304.793L5161.35,303.213L5170.35,305.803L5184.35,305.803L5202.35,306.783L5219.34,300.094L5235.32,300.094L5239.68,304.663L5234.34,306.943L5225.34,305.963L5224.34,309.962L5240.08,313.522L5247.36,317.651L5263.34,313.962L5256.34,297.964L5280.34,299.924L5290.33,299.924L5308.33,300.963L5324.33,301.953L5339.33,301.053L5352.33,304.293L5366.32,306.223L5390.32,310.422L5400,313.512L5400,374.564L5371.32,381.953L5379.1,387.98L5383.9,396.851L5392.32,403.95L5388.32,405.903L5395.32,408.95L5386.24,414.831L5359.32,410.96L5326.33,420.778L5305.5,425.428L5282.32,436.646L5257.34,450.945L5240.3,443.236L5228.34,441.946L5206.34,446.075L5193.35,450.945L5192.35,443.945L5181.44,448.235L5173.42,452.674L5165.35,448.945L5153.61,452.844L5147.53,464.263L5133.58,473.962L5132.54,481.081L5138.39,481.081L5148.35,481.941L5142.55,490.78L5142.55,498.939L5149.35,498.939L5145.3,509.367L5138.35,508.117L5127.21,519.936L5128.75,530.365L5113.36,532.234L5098.5,541.693L5098.5,551.932L5080.64,557.461L5075.38,568.32L5053.4,583.668L5044.8,565.93L5041.2,557.931L5037.35,541.933L5035.31,505.938L5039.76,498.429L5053.36,482.941L5064.36,480.481L5071.36,479.091L5090.22,469.082L5106.64,456.824L5127.35,442.946L5153.35,436.946L5153.35,431.947L5158.35,430.947L5156.35,424.948L5159.35,424.948L5170.35,411.95L5165.35,410.71L5150.14,414.099L5145.35,425.948L5125.35,431.577L5104.36,439.946L5104.36,434.947L5098.36,434.947L5104.36,421.948L5094.36,424.768L5084.36,422.428L5061.36,424.418L5050.36,427.947L5041.62,435.896L5037.11,439.746L5023.37,446.155L5013.37,452.944L5026.37,457.944L5026.37,462.943L5015.37,461.943L5000.37,461.943L4984.54,465.693L4969.37,467.942L4982.37,460.943L4969.36,457.614L4959.38,457.614L4943.38,454.334L4934.38,457.944L4934.38,461.943L4921.34,459.873L4911.38,460.853L4895.38,458.944L4895.38,461.943L4881.38,459.124L4866.39,459.943L4838.39,462.233L4824.39,470.582L4812.6,475.931L4806.18,482.781L4801.4,484.87L4794.4,488.97L4782.4,494.939L4760.98,510.427L4747.4,517.186L4740.4,521.526L4728.4,527.935L4751.4,529.935L4750.4,541.933L4757.4,535.934L4762.4,535.934L4761.4,545.933L4779.4,539.933L4779.4,535.934L4799.39,537.084L4808.43,543.823L4824.81,548.022L4843.88,543.533L4850.12,560.931L4848.26,568.93L4851.79,576.929L4856.87,592.927L4863.39,610.924L4848.45,611.814L4838.39,632.202L4844.3,641.011L4846.39,650.919L4833.39,658.918L4829.21,644.34L4828.59,637.921L4830.87,628.922L4828.6,617.924L4831.22,604.925L4830.56,591.927L4831.13,581.968L4823.39,569.93L4809.15,584.658L4806.92,589.967L4806.92,597.926L4799.82,622.903L4796.4,623.923L4787.4,628.922L4777.96,645.92L4774.06,652.499L4759.4,667.007L4742.98,681.506L4737.11,685.885L4729.27,695.234L4700.41,708.392L4684.41,706.912L4684.41,701.913L4676.41,700.913L4649.5,721.101L4645.56,727.91L4643.11,737.698L4626.33,748.357L4614.73,753.516L4610.42,761.905L4625.46,771.084L4629.05,776.904L4640.06,792.902L4640.06,801.18L4639.39,819.838L4629.08,823.988L4616.42,827.897L4616.42,830.897L4612.42,830.897L4612.42,833.896L4592.54,831.837L4590.64,825.897L4591.42,818.898L4597.73,809.899L4599.42,793.901L4585.42,781.903L4572.42,778.903L4577.42,769.904L4576.5,760.046L4568.33,755.576L4537.43,759.536L4517.43,767.905L4514.81,757.986L4528.43,745.907L4518.43,736.909L4512.19,742.168L4507.96,747.887L4492.57,753.406L4483.98,764.395L4470.44,769.904L4486.44,770.904L4496.43,788.902L4509.43,781.233L4522.44,786.852L4539.43,787.902L4537.28,797.021L4529.47,798.121L4520.45,800.451L4510.43,804.9L4503.09,810.919L4489.43,826.897L4493.43,826.897L4509.43,833.436L4528.51,853.894L4528.51,862.893L4532.43,873.891L4537.46,895.889L4531.43,909.887L4519.43,931.884L4519.43,935.883L4516.43,938.883L4504.13,949.782L4495.92,958.881L4495.39,969.469L4483.61,977.458L4477,983.368L4470.7,987.547L4463.27,995.006L4455.24,998.996L4445.35,1006.01L4413.44,1015.87L4401.4,1020.24L4395.49,1022.02L4390.17,1025.04L4381.62,1025.04L4363.49,1029.3L4356.45,1036.87L4357.45,1045.87L4351.45,1047.87L4364.45,1049.87L4359.67,1060.88L4356.47,1068.33L4344.17,1075.44L4327.76,1062.05L4337.45,1051.87L4351.45,1047.87L4345.19,1037.87L4343.45,1032.87L4334.45,1028.12L4312.46,1034.87L4299.46,1046.87L4286.28,1067.87L4295.49,1078.46L4298.35,1084.87L4308.83,1096.46L4327.95,1114.82L4332.29,1120.14L4338.28,1143.44L4340.09,1156.69L4337.52,1162.89L4337.52,1169.85L4335.45,1179.85L4303.46,1194.85L4294.37,1211.01L4282.93,1215.66L4271.46,1225.85L4266.46,1220.85L4266.46,1218.85L4270.44,1215.63L4271.46,1196.85L4255.46,1190.85L4259.46,1171.85L4246.47,1161.86L4240.47,1167.85L4227.47,1161.21L4212.47,1159.86L4212.47,1147.86L4199.55,1149.86L4199.55,1159.86L4193.1,1180.85L4189.62,1190.85L4192.47,1209.85L4192.47,1205.85L4197.47,1205.85L4204.47,1220.85L4211.49,1243.48L4222.15,1247.02L4228.56,1253.29L4234.1,1256.88L4246.84,1269.93L4250.45,1291.56L4251.77,1304.8L4256.7,1311.21L4261.11,1319.84L4259.4,1330.67L4249.47,1329.83L4238.47,1321.96L4222.43,1310.07L4216.47,1300.84L4210.43,1292.67L4204.02,1276.84L4204.02,1260.85L4196.41,1249.12L4192.86,1242.55L4173.47,1223.85L4174.08,1212.85L4177.43,1200.85L4176.47,1186.85L4179.47,1186.85L4180.47,1174.85L4177.47,1174.85L4178.43,1160.86L4171.15,1141.69L4168.39,1132.86L4160.9,1114.4L4151.48,1108.86L4139.48,1112.88L4130.39,1115.51L4115.22,1111.96L4116.56,1095.43L4119.48,1093.86L4120.48,1087.86L4116.05,1078.87L4104.48,1065.87L4104.48,1054.87L4091.74,1048.3L4082.81,1036.78L4078.74,1030.21L4071.49,1024.87L4068.49,1030.87L4060.4,1029.13L4047.49,1027.5L4033.49,1031.41L4024.21,1029.82L4014.49,1025.87L4006.07,1031.01L4005.12,1037.7L3997.06,1048.85L3976.52,1058.99L3961.49,1075.46L3954.5,1080.13L3946.5,1086.9L3936.96,1092.79L3933.07,1101.89L3920.73,1105.88L3914.19,1113.24L3903.1,1117.88L3902.44,1131.86L3902.44,1138.86L3904.43,1150.86L3897.08,1172.85L3899.51,1196.85L3886.55,1204.02L3883.75,1210.34L3874.07,1216.24L3870.58,1223.74L3856.81,1226.05L3845.28,1209.85L3843.5,1201.85L3838.65,1189.85L3836.62,1182.85L3825.62,1165.86L3818.98,1144.86L3815.06,1134.86L3798.95,1098.86L3791.42,1071.87L3789.96,1065.87L3787.1,1059.87L3785.83,1046.68L3773.53,1047.87L3773.53,1044.87L3767.53,1039.87L3745.36,1028.15L3730.53,1012.87L3749.53,1008.87L3738.53,1007.88L3724.53,998.236L3711.74,991.496L3699.34,977.878L3699.34,972.559L3690.49,968.919L3668.54,971.699L3654.71,970.509L3649.45,971.759L3637.54,971.759L3625.54,973.609L3608.55,968.749L3585.55,968.749L3578.55,967.01L3559.89,963.03L3549.46,944.622L3543.55,943.882L3536.64,950.302L3530.47,953.441L3512.56,950.292L3503.73,948.892L3490.77,941.243L3484.46,935.644L3469.99,929.674L3447.57,900.058L3433.99,900.058L3422.79,909.887L3239.59,831.897L3238.16,825.952L3239.27,821.466L3238.04,818.21L3236.21,816.416L3238.72,812.651L3238.59,808.899L3237.01,804.059L3242.59,800.901L3252.75,731.429L3257.16,737.978L3267.59,740.908L3291.59,734.909L3291.59,739.908L3304.58,734.909L3321.57,728.67L3326.18,724.65L3323.46,714.911L3320.1,708.792L3306.71,702.313L3298.99,695.204L3291.59,692.524L3281.59,686.315L3268.59,680.746L3262.68,678.916L3260.71,676.97L3261.96,668.444L3271.59,655.919L3264.66,649.981L3264.67,649.883L3278.59,643.92L3265.22,646.135ZM3896.51,1206.85L3910.26,1208.94L3922.17,1228.85L3927.12,1246.84L3922.41,1254.57L3902.92,1258.67L3898.29,1249.84L3895.73,1225.89L3897.68,1220.57L3898.95,1209.96L3896.51,1206.85ZM4512.38,1021.87L4504.92,1011.85L4500.85,1002.78L4502.92,992.203L4513.13,977.604L4523.43,970.878L4529.69,973.81L4524.05,996.405L4515.08,1013.17L4512.38,1021.87ZM4801.4,757.906L4802.65,736.789L4809.39,732.909L4810.39,736.909L4820.39,735.909L4822.22,740.628L4826.05,745.947L4826.65,760.916L4822.39,761.905L4822.39,767.905L4819.39,767.905L4819.39,773.904L4815.39,789.902L4802.4,794.901L4802.4,800.901L4808.39,800.901L4809.04,812.899L4805.4,820.898L4800.4,820.898L4799.4,814.899L4788.71,821.488L4784.91,831.567L4780.4,823.357L4772.66,829.922L4754.7,828.977L4752.4,835.896L4742.61,840.915L4733.48,847.245L4729.26,844.125L4730.4,829.897L4716.41,830.507L4698.41,835.556L4688.42,837.386L4681.24,841.025L4666.41,844.895L4674.41,843.895L4674.41,849.894L4675.23,862.893L4671.71,869.292L4664.45,871.442L4651.64,869.872L4650.01,865.892L4652.41,857.893L4648.41,857.893L4648.41,849.894L4652.41,849.894L4652.41,845.895L4657.78,842.105L4665.41,833.896L4686.41,824.897L4689.41,818.898L4702.41,817.178L4710.41,816.599L4721.4,814.919L4738.29,816.339L4741.98,807.18L4745.45,802.83L4759.4,798.901L4773.4,791.552L4782.77,782.313L4789.14,777.633L4801.4,757.906ZM4686.41,855.894L4684.7,847.065L4687.21,843.655L4698.41,838.626L4707.41,835.186L4719.4,836.896L4712.41,847.465L4704.54,848.205L4698.28,854.044L4686.41,855.894ZM4797.4,709.912L4804.4,709.912L4812.39,723.91L4800.4,727.91L4801.4,718.911L4797.4,709.912ZM4823.39,667.917L4845.39,680.876L4862.39,688.405L4868.39,690.124L4876.39,690.124L4879.39,702.913L4862.39,706.052L4849.39,718.911L4826.39,711.702L4816.39,712.792L4805.4,710.912L4806.39,700.893L4817.16,700.893L4819.97,694.284L4824,687.875L4823.39,667.917ZM4761.4,522.936L4770.4,522.936L4770.4,528.935L4761.4,522.936ZM5189.35,519.936L5194.35,519.936L5194.35,524.935L5189.35,524.935L5189.35,519.936ZM5156.35,463.943L5170.35,461.943L5170.35,466.943L5156.35,468.942L5156.35,463.943ZM3452.57,315.962L3428.57,319.921L3428.57,308.363L3452.57,309.962L3452.57,315.962ZM3598.55,209.975L3608.83,207.035L3618.54,205.016L3637.54,205.975L3680.53,201.346L3687.7,199.116L3713.53,194.977L3720.53,194.977L3732.7,199.066L3732.7,202.366L3722.53,206.895L3699.53,210.245L3651.54,216.694L3628.54,219.944L3613.85,223.723L3608.24,227.263L3589.55,230.972L3583.56,234.902L3567.55,239.971L3551.55,251.49L3541.47,258.639L3534.28,263.378L3531.56,270.967L3538.57,277.346L3562.55,286.965L3547.55,292.825L3532.56,291.475L3524.56,291.475L3504.56,288.965L3498.56,280.966L3488.56,277.166L3474.79,277.166L3472.56,269.707L3481.56,267.708L3489.56,255.969L3499.65,251.69L3514.56,245.97L3512.56,240.971L3534.56,232.972L3534.56,229.972L3542.55,229.972L3542.55,222.973L3550.55,218.974L3554.55,218.974L3566.59,215.464L3573.55,213.814L3598.55,209.975ZM5382.32,281.966L5400,276.967L5400,286.965L5382.32,286.965L5382.32,281.966ZM3880.51,250.97L3890.51,250.97L3893.51,259.969L3879.51,258.969L3880.51,250.97ZM4803.4,235.902L4816.18,235.902L4823.43,240.251L4841.39,243.151L4852.39,251.97L4821.39,251.38L4814.39,240.971L4803.4,235.902ZM4757.4,212.975L4763.57,210.655L4780.4,207.065L4798.11,210.445L4802.48,212.425L4813.39,214.974L4814.41,210.575L4829.39,208.115L4844.39,210.875L4860.39,212.585L4872.06,219.924L4853.39,226.973L4834.39,228.893L4812.39,226.973L4798.4,231.972L4792.4,228.973L4771.4,228.283L4766.4,226.023L4758.42,222.463L4757.4,212.975ZM4905.38,219.754L4928.81,219.754L4930.38,228.973L4921.38,229.652L4905.38,224.973L4905.38,219.754ZM3924.51,217.974L3933.5,216.974L3933.5,223.973L3924.51,222.973L3924.51,217.974ZM4894.38,217.974L4899.38,217.974L4899.38,222.973L4894.38,222.973L4894.38,217.974Z" style="fill:#3b3b3b;"/>
</svg>
